  0
SECTION
  2
HEADER
  9
$ACADVER
  1
AC1015
  9
$ACADMAINTVER
 70
     6
  9
$DWGCODEPAGE
  3
ANSI_1252
  9
$INSBASE
 10
0.0
 20
0.0
 30
0.0
  9
$EXTMIN
 10
-0.7898918462
 20
-0.7898918462
 30
0.0
  9
$EXTMAX
 10
0.7898918462
 20
0.7898918462
 30
0.0
  9
$LIMMIN
 10
0.0
 20
0.0
  9
$LIMMAX
 10
12.0
 20
9.0
  9
$ORTHOMODE
 70
     0
  9
$REGENMODE
 70
     1
  9
$FILLMODE
 70
     1
  9
$QTEXTMODE
 70
     0
  9
$MIRRTEXT
 70
     1
  9
$LTSCALE
 40
1.0
  9
$ATTMODE
 70
     1
  9
$TEXTSIZE
 40
0.1666666667
  9
$TRACEWID
 40
0.05
  9
$TEXTSTYLE
  7
Standard
  9
$CLAYER
  8
0
  9
$CELTYPE
  6
ByLayer
  9
$CECOLOR
 62
   256
  9
$CELTSCALE
 40
1.0
  9
$DISPSILH
 70
     0
  9
$DIMSCALE
 40
1.0
  9
$DIMASZ
 40
0.1213378906
  9
$DIMEXO
 40
0.0
  9
$DIMDLI
 40
0.38
  9
$DIMRND
 40
0.0
  9
$DIMDLE
 40
0.0
  9
$DIMEXE
 40
0.0625
  9
$DIMTP
 40
0.0
  9
$DIMTM
 40
0.0
  9
$DIMTXT
 40
0.1666666667
  9
$DIMCEN
 40
0.09
  9
$DIMTSZ
 40
0.0
  9
$DIMTOL
 70
     0
  9
$DIMLIM
 70
     0
  9
$DIMTIH
 70
     1
  9
$DIMTOH
 70
     1
  9
$DIMSE1
 70
     0
  9
$DIMSE2
 70
     0
  9
$DIMTAD
 70
     0
  9
$DIMZIN
 70
     0
  9
$DIMBLK
  1

  9
$DIMASO
 70
     1
  9
$DIMSHO
 70
     1
  9
$DIMPOST
  1

  9
$DIMAPOST
  1

  9
$DIMALT
 70
     0
  9
$DIMALTD
 70
     2
  9
$DIMALTF
 40
25.4
  9
$DIMLFAC
 40
1.0
  9
$DIMTOFL
 70
     0
  9
$DIMTVP
 40
0.0
  9
$DIMTIX
 70
     0
  9
$DIMSOXD
 70
     0
  9
$DIMSAH
 70
     0
  9
$DIMBLK1
  1

  9
$DIMBLK2
  1

  9
$DIMSTYLE
  2
Standard
  9
$DIMCLRD
 70
     0
  9
$DIMCLRE
 70
     0
  9
$DIMCLRT
 70
     0
  9
$DIMTFAC
 40
1.0
  9
$DIMGAP
 40
0.25
  9
$DIMJUST
 70
     0
  9
$DIMSD1
 70
     0
  9
$DIMSD2
 70
     0
  9
$DIMTOLJ
 70
     1
  9
$DIMTZIN
 70
     0
  9
$DIMALTZ
 70
     0
  9
$DIMALTTZ
 70
     0
  9
$DIMUPT
 70
     0
  9
$DIMDEC
 70
     4
  9
$DIMTDEC
 70
     4
  9
$DIMALTU
 70
     2
  9
$DIMALTTD
 70
     2
  9
$DIMTXSTY
  7
Standard
  9
$DIMAUNIT
 70
     0
  9
$DIMADEC
 70
     2
  9
$DIMALTRND
 40
0.0
  9
$DIMAZIN
 70
     0
  9
$DIMDSEP
 70
    46
  9
$DIMATFIT
 70
     3
  9
$DIMFRAC
 70
     0
  9
$DIMLDRBLK
  1

  9
$DIMLUNIT
 70
     2
  9
$DIMLWD
 70
    -2
  9
$DIMLWE
 70
    -2
  9
$DIMTMOVE
 70
     0
  9
$LUNITS
 70
     2
  9
$LUPREC
 70
     8
  9
$SKETCHINC
 40
0.1
  9
$FILLETRAD
 40
0.5
  9
$AUNITS
 70
     0
  9
$AUPREC
 70
     2
  9
$MENU
  1
.
  9
$ELEVATION
 40
0.0
  9
$PELEVATION
 40
0.0
  9
$THICKNESS
 40
0.0
  9
$LIMCHECK
 70
     0
  9
$CHAMFERA
 40
0.0
  9
$CHAMFERB
 40
0.0
  9
$CHAMFERC
 40
0.0
  9
$CHAMFERD
 40
0.0
  9
$SKPOLY
 70
     0
  9
$TDCREATE
 40
2459311.624213067
  9
$TDUCREATE
 40
2459311.915879734
  9
$TDUPDATE
 40
2459311.624227546
  9
$TDUUPDATE
 40
2459311.915894213
  9
$TDINDWG
 40
0.0000000116
  9
$TDUSRTIMER
 40
0.0000000116
  9
$USRTIMER
 70
     1
  9
$ANGBASE
 50
0.0
  9
$ANGDIR
 70
     0
  9
$PDMODE
 70
     0
  9
$PDSIZE
 40
-1.0
  9
$PLINEWID
 40
0.0
  9
$SPLFRAME
 70
     0
  9
$SPLINETYPE
 70
     6
  9
$SPLINESEGS
 70
     8
  9
$HANDSEED
  5
19F
  9
$SURFTAB1
 70
     6
  9
$SURFTAB2
 70
     6
  9
$SURFTYPE
 70
     6
  9
$SURFU
 70
     6
  9
$SURFV
 70
     6
  9
$UCSBASE
  2

  9
$UCSNAME
  2

  9
$UCSORG
 10
0.0
 20
0.0
 30
0.0
  9
$UCSXDIR
 10
1.0
 20
0.0
 30
0.0
  9
$UCSYDIR
 10
0.0
 20
1.0
 30
0.0
  9
$UCSORTHOREF
  2

  9
$UCSORTHOVIEW
 70
     0
  9
$UCSORGTOP
 10
0.0
 20
0.0
 30
0.0
  9
$UCSORGBOTTOM
 10
0.0
 20
0.0
 30
0.0
  9
$UCSORGLEFT
 10
0.0
 20
0.0
 30
0.0
  9
$UCSORGRIGHT
 10
0.0
 20
0.0
 30
0.0
  9
$UCSORGFRONT
 10
0.0
 20
0.0
 30
0.0
  9
$UCSORGBACK
 10
0.0
 20
0.0
 30
0.0
  9
$PUCSBASE
  2

  9
$PUCSNAME
  2

  9
$PUCSORG
 10
0.0
 20
0.0
 30
0.0
  9
$PUCSXDIR
 10
1.0
 20
0.0
 30
0.0
  9
$PUCSYDIR
 10
0.0
 20
1.0
 30
0.0
  9
$PUCSORTHOREF
  2

  9
$PUCSORTHOVIEW
 70
     0
  9
$PUCSORGTOP
 10
0.0
 20
0.0
 30
0.0
  9
$PUCSORGBOTTOM
 10
0.0
 20
0.0
 30
0.0
  9
$PUCSORGLEFT
 10
0.0
 20
0.0
 30
0.0
  9
$PUCSORGRIGHT
 10
0.0
 20
0.0
 30
0.0
  9
$PUCSORGFRONT
 10
0.0
 20
0.0
 30
0.0
  9
$PUCSORGBACK
 10
0.0
 20
0.0
 30
0.0
  9
$USERI1
 70
     0
  9
$USERI2
 70
     0
  9
$USERI3
 70
     0
  9
$USERI4
 70
     0
  9
$USERI5
 70
     0
  9
$USERR1
 40
0.0
  9
$USERR2
 40
0.0
  9
$USERR3
 40
0.0
  9
$USERR4
 40
0.0
  9
$USERR5
 40
0.0
  9
$WORLDVIEW
 70
     1
  9
$SHADEDGE
 70
     3
  9
$SHADEDIF
 70
    70
  9
$TILEMODE
 70
     1
  9
$MAXACTVP
 70
    64
  9
$PINSBASE
 10
0.0
 20
0.0
 30
0.0
  9
$PLIMCHECK
 70
     0
  9
$PEXTMIN
 10
1.0000000000E+20
 20
1.0000000000E+20
 30
1.0000000000E+20
  9
$PEXTMAX
 10
-1.0000000000E+20
 20
-1.0000000000E+20
 30
-1.0000000000E+20
  9
$PLIMMIN
 10
0.0
 20
0.0
  9
$PLIMMAX
 10
12.0
 20
9.0
  9
$UNITMODE
 70
     0
  9
$VISRETAIN
 70
     1
  9
$PLINEGEN
 70
     0
  9
$PSLTSCALE
 70
     1
  9
$TREEDEPTH
 70
  3020
  9
$CMLSTYLE
  2
Standard
  9
$CMLJUST
 70
     0
  9
$CMLSCALE
 40
1.0
  9
$PROXYGRAPHICS
 70
     1
  9
$MEASUREMENT
 70
     0
  9
$CELWEIGHT
370
    -1
  9
$ENDCAPS
280
     0
  9
$JOINSTYLE
280
     0
  9
$LWDISPLAY
290
     1
  9
$INSUNITS
 70
     1
  9
$HYPERLINKBASE
  1

  9
$STYLESHEET
  1

  9
$XEDIT
290
     1
  9
$CEPSNTYPE
380
     0
  9
$PSTYLEMODE
290
     1
  9
$FINGERPRINTGUID
  2
{61fdf5cc-2ff2-4a4d-9d4a-69973c4edf34}
  9
$VERSIONGUID
  2
{FAEB1C32-E019-11D5-929B-00C0DF256EC4}
  9
$EXTNAMES
290
     1
  9
$PSVPSCALE
 40
0.0
  9
$OLESTARTUP
290
     0
  0
ENDSEC
  0
SECTION
  2
CLASSES
  0
CLASS
  1
ACDBDICTIONARYWDFLT
  2
AcDbDictionaryWithDefault
  3
ObjectDBX Classes
 90
        0
280
     0
281
     0
  0
CLASS
  1
VISUALSTYLE
  2
AcDbVisualStyle
  3
ObjectDBX Classes
 90
     4095
280
     0
281
     0
  0
CLASS
  1
MATERIAL
  2
AcDbMaterial
  3
ObjectDBX Classes
 90
     1153
280
     0
281
     0
  0
CLASS
  1
SCALE
  2
AcDbScale
  3
ObjectDBX Classes
 90
     1153
280
     0
281
     0
  0
CLASS
  1
TABLESTYLE
  2
AcDbTableStyle
  3
ObjectDBX Classes
 90
     4095
280
     0
281
     0
  0
CLASS
  1
MLEADERSTYLE
  2
AcDbMLeaderStyle
  3
ACDB_MLEADERSTYLE_CLASS
 90
     4095
280
     0
281
     0
  0
CLASS
  1
SUN
  2
AcDbSun
  3
SCENEOE
 90
     1153
280
     0
281
     0
  0
CLASS
  1
ACDBPLACEHOLDER
  2
AcDbPlaceHolder
  3
ObjectDBX Classes
 90
        0
280
     0
281
     0
  0
CLASS
  1
LAYOUT
  2
AcDbLayout
  3
ObjectDBX Classes
 90
        0
280
     0
281
     0
  0
ENDSEC
  0
SECTION
  2
TABLES
  0
TABLE
  2
VPORT
  5
8
330
0
100
AcDbSymbolTable
 70
     1
  0
VPORT
  5
29
330
8
100
AcDbSymbolTableRecord
100
AcDbViewportTableRecord
  2
*Active
 70
     0
 10
0.0
 20
0.0
 11
1.0
 21
1.0
 12
0.0
 22
0.0
 13
0.0
 23
0.0
 14
0.5
 24
0.5
 15
0.5
 25
0.5
 16
0.0
 26
0.0
 36
1.0
 17
0.0
 27
0.0
 37
0.0
 40
1.6113793663
 41
1.0
 42
50.0
 43
0.0
 44
0.0
 50
0.0
 51
0.0
 71
     0
 72
   100
 73
     1
 74
     3
 75
     0
 76
     0
 77
     0
 78
     0
281
     0
 65
     1
110
0.0
120
0.0
130
0.0
111
1.0
121
0.0
131
0.0
112
0.0
122
1.0
132
0.0
 79
     0
146
0.0
  0
ENDTAB
  0
TABLE
  2
LTYPE
  5
5
330
0
100
AcDbSymbolTable
 70
     6
  0
LTYPE
  5
14
330
5
100
AcDbSymbolTableRecord
100
AcDbLinetypeTableRecord
  2
ByBlock
 70
     0
  3

 72
    65
 73
     0
 40
0.0
  0
LTYPE
  5
15
330
5
100
AcDbSymbolTableRecord
100
AcDbLinetypeTableRecord
  2
ByLayer
 70
     0
  3

 72
    65
 73
     0
 40
0.0
  0
LTYPE
  5
16
330
5
100
AcDbSymbolTableRecord
100
AcDbLinetypeTableRecord
  2
Continuous
 70
     0
  3
Solid line
 72
    65
 73
     0
 40
0.0
  0
LTYPE
  5
6E
330
5
100
AcDbSymbolTableRecord
100
AcDbLinetypeTableRecord
  2
HIDDEN
 70
     0
  3
Hidden __ __ __ __ __ __ __ __ __ __ __ __ __ __
 72
    65
 73
     2
 40
0.075
 49
0.05
 74
     0
 49
-0.025
 74
     0
  0
LTYPE
  5
6F
330
5
100
AcDbSymbolTableRecord
100
AcDbLinetypeTableRecord
  2
PHANTOM
 70
     0
  3
Phantom ______  __  __  ______  __  __  ______
 72
    65
 73
     6
 40
0.5
 49
0.25
 74
     0
 49
-0.05
 74
     0
 49
0.05
 74
     0
 49
-0.05
 74
     0
 49
0.05
 74
     0
 49
-0.05
 74
     0
  0
LTYPE
  5
70
330
5
100
AcDbSymbolTableRecord
100
AcDbLinetypeTableRecord
  2
CENTER
 70
     0
  3
Center ____ _ ____ _ ____ _ ____ _ ____ _ ____
 72
    65
 73
     4
 40
0.4
 49
0.25
 74
     0
 49
-0.05
 74
     0
 49
0.05
 74
     0
 49
-0.05
 74
     0
  0
LTYPE
  5
71
330
5
100
AcDbSymbolTableRecord
100
AcDbLinetypeTableRecord
  2
CENTERX2
 70
     0
  3
Center (2x) ________  __  ________  __  _____
 72
    65
 73
     4
 40
0.8
 49
0.5
 74
     0
 49
-0.1
 74
     0
 49
0.1
 74
     0
 49
-0.1
 74
     0
  0
LTYPE
  5
72
330
5
100
AcDbSymbolTableRecord
100
AcDbLinetypeTableRecord
  2
DOT2
 70
     0
  3
Dot (.5x) ........................................
 72
    65
 73
     2
 40
0.025
 49
0.0
 74
     0
 49
-0.025
 74
     0
  0
ENDTAB
  0
TABLE
  2
LAYER
  5
2
330
0
100
AcDbSymbolTable
 70
     1
  0
LAYER
  5
10
330
2
100
AcDbSymbolTableRecord
100
AcDbLayerTableRecord
  2
0
 70
     0
 62
     7
  6
Continuous
370
    -3
390
F
  0
ENDTAB
  0
TABLE
  2
STYLE
  5
3
330
0
100
AcDbSymbolTable
 70
     2
  0
STYLE
  5
11
330
3
100
AcDbSymbolTableRecord
100
AcDbTextStyleTableRecord
  2
Standard
 70
     0
 40
0.0
 41
1.0
 50
0.0
 71
     0
 42
0.1666666667
  3
txt
  4

  0
STYLE
  5
19B
330
3
100
AcDbSymbolTableRecord
100
AcDbTextStyleTableRecord
  2
SLDTEXTSTYLE0
 70
     0
 40
0.0
 41
0.7
 50
0.0
 71
     0
 42
0.1666666667
  3
TXT
  4

  0
ENDTAB
  0
TABLE
  2
VIEW
  5
6
330
0
100
AcDbSymbolTable
 70
     0
  0
ENDTAB
  0
TABLE
  2
UCS
  5
7
330
0
100
AcDbSymbolTable
 70
     0
  0
ENDTAB
  0
TABLE
  2
APPID
  5
9
330
0
100
AcDbSymbolTable
 70
     1
  0
APPID
  5
12
330
9
100
AcDbSymbolTableRecord
100
AcDbRegAppTableRecord
  2
ACAD
 70
     0
  0
ENDTAB
  0
TABLE
  2
DIMSTYLE
  5
A
330
0
100
AcDbSymbolTable
 70
     1
100
AcDbDimStyleTable
  0
DIMSTYLE
105
27
330
A
100
AcDbSymbolTableRecord
100
AcDbDimStyleTableRecord
  2
Standard
 70
     0
178
     0
340
11
  0
ENDTAB
  0
TABLE
  2
BLOCK_RECORD
  5
1
330
0
100
AcDbSymbolTable
 70
     1
  0
BLOCK_RECORD
  5
1F
330
1
100
AcDbSymbolTableRecord
100
AcDbBlockTableRecord
  2
*Model_Space
340
22
  0
BLOCK_RECORD
  5
1B
330
1
100
AcDbSymbolTableRecord
100
AcDbBlockTableRecord
  2
*Paper_Space
340
1E
  0
BLOCK_RECORD
  5
23
330
1
100
AcDbSymbolTableRecord
100
AcDbBlockTableRecord
  2
*Paper_Space0
340
26
  0
ENDTAB
  0
ENDSEC
  0
SECTION
  2
BLOCKS
  0
BLOCK
  5
20
330
1F
100
AcDbEntity
  8
0
100
AcDbBlockBegin
  2
*Model_Space
 70
     0
 10
0.0
 20
0.0
 30
0.0
  3
*Model_Space
  1

  0
ENDBLK
  5
21
330
1F
100
AcDbEntity
  8
0
100
AcDbBlockEnd
  0
BLOCK
  5
1C
330
1B
100
AcDbEntity
 67
     1
  8
0
100
AcDbBlockBegin
  2
*Paper_Space
 70
     0
 10
0.0
 20
0.0
 30
0.0
  3
*Paper_Space
  1

  0
ENDBLK
  5
1D
330
1B
100
AcDbEntity
 67
     1
  8
0
100
AcDbBlockEnd
  0
BLOCK
  5
24
330
23
100
AcDbEntity
  8
0
100
AcDbBlockBegin
  2
*Paper_Space0
 70
     0
 10
0.0
 20
0.0
 30
0.0
  3
*Paper_Space0
  1

  0
ENDBLK
  5
25
330
23
100
AcDbEntity
  8
0
100
AcDbBlockEnd
  0
ENDSEC
  0
SECTION
  2
ENTITIES
  0
LINE
  5
73
330
1F
100
AcDbEntity
  8
0
  6
Continuous
 62
     7
370
    25
100
AcDbLine
 10
-0.1835
 20
0.0585
 30
0.0
 11
-0.1835
 21
-0.0585
 31
0.0
  0
LINE
  5
74
330
1F
100
AcDbEntity
  8
0
  6
Continuous
 62
     7
370
    25
100
AcDbLine
 10
-0.0665
 20
0.0585
 30
0.0
 11
-0.1835
 21
0.0585
 31
0.0
  0
LINE
  5
75
330
1F
100
AcDbEntity
  8
0
  6
Continuous
 62
     7
370
    25
100
AcDbLine
 10
-0.0665
 20
-0.0585
 30
0.0
 11
-0.0665
 21
0.0585
 31
0.0
  0
LINE
  5
76
330
1F
100
AcDbEntity
  8
0
  6
Continuous
 62
     7
370
    25
100
AcDbLine
 10
-0.1835
 20
-0.0585
 30
0.0
 11
-0.0665
 21
-0.0585
 31
0.0
  0
SPLINE
  5
77
330
1F
100
AcDbEntity
  8
0
  6
Continuous
 62
     7
370
    25
100
AcDbSpline
210
0.0
220
0.0
230
1.0
 70
     8
 71
     2
 72
     6
 73
     3
 74
     0
 42
0.00000001
 43
0.00000001
 40
0.4999316233457279
 40
0.4999316233457279
 40
0.4999316233457279
 40
0.5001583889583593
 40
0.5001583889583593
 40
0.5001583889583593
 10
0.2170655726230296
 20
0.7595936651644745
 30
0.0
 10
0.1968356845850014
 20
0.7333114332824477
 30
0.0
 10
0.1833692402739487
 20
0.7025756289043418
 30
0.0
  0
LINE
  5
78
330
1F
100
AcDbEntity
  8
0
  6
Continuous
 62
     7
370
    25
100
AcDbLine
 10
0.1833692403
 20
0.7025756289
 30
0.0
 11
0.1795814937
 21
0.6884395776
 31
0.0
  0
ARC
  5
79
330
1F
100
AcDbEntity
  8
0
  6
Continuous
 62
     7
370
    25
100
AcDbCircle
 10
0.1700985174
 20
0.6909805355
 30
0.0
 40
0.0098174999999999
100
AcDbArc
 50
256.1704889521
 51
344.9999883078
  0
ARC
  5
7A
330
1F
100
AcDbEntity
  8
0
  6
Continuous
 62
     7
370
    25
100
AcDbCircle
 10
0.0
 20
0.0
 30
0.0
 40
0.7017916666666668
100
AcDbArc
 50
76.1704889521
 51
78.8294993558
  0
ARC
  5
7B
330
1F
100
AcDbEntity
  8
0
  6
Continuous
 62
     7
370
    25
100
AcDbCircle
 10
0.1378595244
 20
0.6981277516
 30
0.0
 40
0.0098175
100
AcDbArc
 50
170.0
 51
258.8294993558
  0
LINE
  5
7C
330
1F
100
AcDbEntity
  8
0
  6
Continuous
 62
     7
370
    25
100
AcDbLine
 10
0.1281911743
 20
0.6998325426
 30
0.0
 11
0.1307324665
 21
0.7142449276
 31
0.0
  0
SPLINE
  5
7D
330
1F
100
AcDbEntity
  8
0
  6
Continuous
 62
     7
370
    25
100
AcDbSpline
210
0.0
220
0.0
230
1.0
 70
     8
 71
     2
 72
     6
 73
     3
 74
     0
 42
0.00000001
 43
0.00000001
 40
0.4998416110458543
 40
0.4998416110458543
 40
0.4998416110458543
 40
0.5000683766567144
 40
0.5000683766567144
 40
0.5000683766567144
 10
0.1307324664542674
 20
0.7142449276075056
 30
0.0
 10
0.1315172420216998
 20
0.7477921912995978
 30
0.0
 10
0.1242900946901372
 20
0.7801615040430059
 30
0.0
  0
ARC
  5
7E
330
1F
100
AcDbEntity
  8
0
  6
Continuous
 62
     7
370
    25
100
AcDbCircle
 10
0.0
 20
0.0
 30
0.0
 40
0.7900000000155758
100
AcDbArc
 50
80.9480907536
 51
84.0518975883
  0
SPLINE
  5
7F
330
1F
100
AcDbEntity
  8
0
  6
Continuous
 62
     7
370
    25
100
AcDbSpline
210
0.0
220
0.0
230
1.0
 70
     8
 71
     2
 72
     6
 73
     3
 74
     0
 42
0.00000001
 43
0.00000001
 40
0.499931623347663
 40
0.499931623347663
 40
0.499931623347663
 40
0.500158388958391
 40
0.500158388958391
 40
0.500158388958391
 10
0.0818658028515165
 20
0.7857467712216859
 30
0.0
 10
0.0665071141324302
 20
0.7563509425241072
 30
0.0
 10
0.0585824718559905
 20
0.7237436608356391
 30
0.0
  0
LINE
  5
80
330
1F
100
AcDbEntity
  8
0
  6
Continuous
 62
     7
370
    25
100
AcDbLine
 10
0.0585824719
 20
0.7237436608
 30
0.0
 11
0.0573069692
 21
0.7091646326
 31
0.0
  0
ARC
  5
81
330
1F
100
AcDbEntity
  8
0
  6
Continuous
 62
     7
370
    25
100
AcDbCircle
 10
0.0475268279
 20
0.7100202861
 30
0.0
 40
0.0098175000000001
100
AcDbArc
 50
266.1704889521
 51
354.9999883078
  0
ARC
  5
82
330
1F
100
AcDbEntity
  8
0
  6
Continuous
 62
     7
370
    25
100
AcDbCircle
 10
0.0
 20
0.0
 30
0.0
 40
0.7017916666666666
100
AcDbArc
 50
86.1704889521
 51
88.8294993558
  0
ARC
  5
83
330
1F
100
AcDbEntity
  8
0
  6
Continuous
 62
     7
370
    25
100
AcDbCircle
 10
0.0145365166
 20
0.7114606776
 30
0.0
 40
0.0098175000000001
100
AcDbArc
 50
180.0
 51
268.8294993558
  0
LINE
  5
84
330
1F
100
AcDbEntity
  8
0
  6
Continuous
 62
     7
370
    25
100
AcDbLine
 10
0.0047190166
 20
0.7114606776
 30
0.0
 11
0.0047190164
 21
0.7260953968
 31
0.0
  0
SPLINE
  5
85
330
1F
100
AcDbEntity
  8
0
  6
Continuous
 62
     7
370
    25
100
AcDbSpline
210
0.0
220
0.0
230
1.0
 70
     8
 71
     2
 72
     6
 73
     3
 74
     0
 42
0.00000001
 43
0.00000001
 40
0.4998416110458957
 40
0.4998416110458957
 40
0.4998416110458957
 40
0.5000683766567569
 40
0.5000683766567569
 40
0.5000683766567569
 10
0.0047190164413395
 20
0.7260953968186039
 30
0.0
 10
-0.0003335517026658
 20
0.7592692770415191
 30
0.0
 10
-0.0130717745985853
 20
0.7898918462264614
 30
0.0
  0
ARC
  5
86
330
1F
100
AcDbEntity
  8
0
  6
Continuous
 62
     7
370
    25
100
AcDbCircle
 10
0.0
 20
0.0
 30
0.0
 40
0.7900000000152122
100
AcDbArc
 50
90.9480907539
 51
94.0518975884
  0
SPLINE
  5
87
330
1F
100
AcDbEntity
  8
0
  6
Continuous
 62
     7
370
    25
100
AcDbSpline
210
0.0
220
0.0
230
1.0
 70
     8
 71
     2
 72
     6
 73
     3
 74
     0
 42
0.00000001
 43
0.00000001
 40
0.4999316233476282
 40
0.4999316233476282
 40
0.4999316233476282
 40
0.5001583889583661
 40
0.5001583889583661
 40
0.5001583889583661
 10
-0.0558214175779561
 20
0.7880253596827095
 30
0.0
 10
-0.0658422412218257
 20
0.7564091113669804
 30
0.0
 10
-0.0679842953325103
 20
0.7229211078646841
 30
0.0
  0
LINE
  5
88
330
1F
100
AcDbEntity
  8
0
  6
Continuous
 62
     7
370
    25
100
AcDbLine
 10
-0.0679842953
 20
0.7229211079
 30
0.0
 11
-0.0667087986
 21
0.7083420791
 31
0.0
  0
ARC
  5
89
330
1F
100
AcDbEntity
  8
0
  6
Continuous
 62
     7
370
    25
100
AcDbCircle
 10
-0.0764889402
 20
0.7074864296
 30
0.0
 40
0.0098175
100
AcDbArc
 50
276.1704889521
 51
4.9999883078
  0
ARC
  5
8A
330
1F
100
AcDbEntity
  8
0
  6
Continuous
 62
     7
370
    25
100
AcDbCircle
 10
0.0
 20
0.0
 30
0.0
 40
0.7017916666666666
100
AcDbArc
 50
96.1704889521
 51
98.8294993558
  0
ARC
  5
8B
330
1F
100
AcDbEntity
  8
0
  6
Continuous
 62
     7
370
    25
100
AcDbCircle
 10
-0.1092281759
 20
0.7031762309
 30
0.0
 40
0.0098175
100
AcDbArc
 50
190.0
 51
278.8294993558
  0
LINE
  5
8C
330
1F
100
AcDbEntity
  8
0
  6
Continuous
 62
     7
370
    25
100
AcDbLine
 10
-0.118896526
 20
0.7014714399
 30
0.0
 11
-0.1214378185
 21
0.7158838248
 31
0.0
  0
SPLINE
  5
8D
330
1F
100
AcDbEntity
  8
0
  6
Continuous
 62
     7
370
    25
100
AcDbSpline
210
0.0
220
0.0
230
1.0
 70
     8
 71
     2
 72
     6
 73
     3
 74
     0
 42
0.00000001
 43
0.00000001
 40
0.4998416110459236
 40
0.4998416110459236
 40
0.4998416110459236
 40
0.50006837665678
 40
0.50006837665678
 40
0.50006837665678
 10
-0.1214378184910919
 20
0.715883824819673
 30
0.0
 10
-0.1321742106197972
 20
0.7476763500094858
 30
0.0
 10
-0.1500364646224538
 20
0.7756217243670741
 30
0.0
  0
ARC
  5
8E
330
1F
100
AcDbEntity
  8
0
  6
Continuous
 62
     7
370
    25
100
AcDbCircle
 10
0.0
 20
0.0
 30
0.0
 40
0.7900000000152912
100
AcDbArc
 50
100.948090754
 51
104.0518975886
  0
SPLINE
  5
8F
330
1F
100
AcDbEntity
  8
0
  6
Continuous
 62
     7
370
    25
100
AcDbSpline
210
0.0
220
0.0
230
1.0
 70
     8
 71
     2
 72
     6
 73
     3
 74
     0
 42
0.00000001
 43
0.00000001
 40
0.4999316233476591
 40
0.4999316233476591
 40
0.4999316233476591
 40
0.5001583889583966
 40
0.5001583889583966
 40
0.5001583889583966
 10
-0.1918125324802716
 20
0.7663601963493017
 30
0.0
 10
-0.1961910133905367
 20
0.7334841721220889
 30
0.0
 10
-0.1924853941031624
 20
0.7001329628471007
 30
0.0
  0
LINE
  5
90
330
1F
100
AcDbEntity
  8
0
  6
Continuous
 62
     7
370
    25
100
AcDbLine
 10
-0.1924853941
 20
0.7001329628
 30
0.0
 11
-0.1886976533
 21
0.68599691
 31
0.0
  0
ARC
  5
91
330
1F
100
AcDbEntity
  8
0
  6
Continuous
 62
     7
370
    25
100
AcDbCircle
 10
-0.1981806306
 20
0.683455956
 30
0.0
 40
0.0098175
100
AcDbArc
 50
286.1704889521
 51
14.9999883078
  0
ARC
  5
92
330
1F
100
AcDbEntity
  8
0
  6
Continuous
 62
     7
370
    25
100
AcDbCircle
 10
0.0
 20
0.0
 30
0.0
 40
0.7017916666666666
100
AcDbArc
 50
106.1704889521
 51
108.8294993558
  0
ARC
  5
93
330
1F
100
AcDbEntity
  8
0
  6
Continuous
 62
     7
370
    25
100
AcDbCircle
 10
-0.2296740255
 20
0.6735261302
 30
0.0
 40
0.0098175000000001
100
AcDbArc
 50
200.0
 51
288.8294993558
  0
LINE
  5
94
330
1F
100
AcDbEntity
  8
0
  6
Continuous
 62
     7
370
    25
100
AcDbLine
 10
-0.2388994578
 20
0.6701683475
 30
0.0
 11
-0.2439048268
 21
0.6839204851
 31
0.0
  0
SPLINE
  5
95
330
1F
100
AcDbEntity
  8
0
  6
Continuous
 62
     7
370
    25
100
AcDbSpline
210
0.0
220
0.0
230
1.0
 70
     8
 71
     2
 72
     6
 73
     3
 74
     0
 42
0.00000001
 43
0.00000001
 40
0.4998416110457953
 40
0.4998416110457953
 40
0.4998416110457953
 40
0.5000683766566623
 40
0.5000683766566623
 40
0.5000683766566623
 10
-0.2439048267527345
 20
0.6839204850598904
 30
0.0
 10
-0.2599988230196023
 20
0.7133656554301735
 30
0.0
 10
-0.2824423725761996
 20
0.7377847289046866
 30
0.0
  0
ARC
  5
96
330
1F
100
AcDbEntity
  8
0
  6
Continuous
 62
     7
370
    25
100
AcDbCircle
 10
0.0
 20
0.0
 30
0.0
 40
0.7900000000154002
100
AcDbArc
 50
110.9480907533
 51
114.0518975885
  0
SPLINE
  5
97
330
1F
100
AcDbEntity
  8
0
  6
Continuous
 62
     7
370
    25
100
AcDbSpline
210
0.0
220
0.0
230
1.0
 70
     8
 71
     2
 72
     6
 73
     3
 74
     0
 42
0.00000001
 43
0.00000001
 40
0.4999316233477033
 40
0.4999316233477033
 40
0.4999316233477033
 40
0.5001583889584329
 40
0.5001583889584329
 40
0.5001583889584329
 10
-0.3219755206431139
 20
0.7214095662454298
 30
0.0
 10
-0.3205786208924111
 20
0.6882726874682573
 30
0.0
 10
-0.3111379215739081
 20
0.6560716320392513
 30
0.0
  0
LINE
  5
98
330
1F
100
AcDbEntity
  8
0
  6
Continuous
 62
     7
370
    25
100
AcDbLine
 10
-0.3111379216
 20
0.656071632
 30
0.0
 11
-0.3049530252
 21
0.6428080719
 31
0.0
  0
ARC
  5
99
330
1F
100
AcDbEntity
  8
0
  6
Continuous
 62
     7
370
    25
100
AcDbCircle
 10
-0.3138507028
 20
0.6386590189
 30
0.0
 40
0.0098175
100
AcDbArc
 50
296.1704889521
 51
24.9999883078
  0
ARC
  5
9A
330
1F
100
AcDbEntity
  8
0
  6
Continuous
 62
     7
370
    25
100
AcDbCircle
 10
0.0
 20
0.0
 30
0.0
 40
0.7017916666666666
100
AcDbArc
 50
116.1704889521
 51
118.8294993558
  0
ARC
  5
9B
330
1F
100
AcDbEntity
  8
0
  6
Continuous
 62
     7
370
    25
100
AcDbCircle
 10
-0.3431413461
 20
0.6234112789
 30
0.0
 40
0.0098175000000001
100
AcDbArc
 50
210.0
 51
298.8294993558
  0
LINE
  5
9C
330
1F
100
AcDbEntity
  8
0
  6
Continuous
 62
     7
370
    25
100
AcDbLine
 10
-0.3516435505
 20
0.6185025289
 30
0.0
 11
-0.3589609103
 21
0.6311765674
 31
0.0
  0
SPLINE
  5
9D
330
1F
100
AcDbEntity
  8
0
  6
Continuous
 62
     7
370
    25
100
AcDbSpline
210
0.0
220
0.0
230
1.0
 70
     8
 71
     2
 72
     6
 73
     3
 74
     0
 42
0.00000001
 43
0.00000001
 40
0.4998416110457951
 40
0.4998416110457951
 40
0.4998416110457951
 40
0.5000683766566593
 40
0.5000683766566593
 40
0.5000683766566593
 10
-0.3589609102877927
 20
0.6311765674397078
 30
0.0
 10
-0.3799235027641505
 20
0.6573797063858418
 30
0.0
 10
-0.4062664119815412
 20
0.6775305177840157
 30
0.0
  0
ARC
  5
9E
330
1F
100
AcDbEntity
  8
0
  6
Continuous
 62
     7
370
    25
100
AcDbCircle
 10
0.0
 20
0.0
 30
0.0
 40
0.7900000000172288
100
AcDbArc
 50
120.9480907534
 51
124.0518975885
  0
SPLINE
  5
9F
330
1F
100
AcDbEntity
  8
0
  6
Continuous
 62
     7
370
    25
100
AcDbSpline
210
0.0
220
0.0
230
1.0
 70
     8
 71
     2
 72
     6
 73
     3
 74
     0
 42
0.00000001
 43
0.00000001
 40
0.499931623347651
 40
0.499931623347651
 40
0.499931623347651
 40
0.5001583889583859
 40
0.5001583889583859
 40
0.5001583889583859
 10
-0.4423554455388642
 20
0.6545392715230078
 30
0.0
 10
-0.4352256092227926
 20
0.6221483854880927
 30
0.0
 10
-0.4203366807473338
 20
0.5920758966784784
 30
0.0
  0
LINE
  5
A0
330
1F
100
AcDbEntity
  8
0
  6
Continuous
 62
     7
370
    25
100
AcDbLine
 10
-0.4203366807
 20
0.5920758967
 30
0.0
 11
-0.4119425538
 21
0.5800878358
 31
0.0
  0
ARC
  5
A1
330
1F
100
AcDbEntity
  8
0
  6
Continuous
 62
     7
370
    25
100
AcDbCircle
 10
-0.4199845801
 20
0.5744567508
 30
0.0
 40
0.0098175
100
AcDbArc
 50
306.1704889521
 51
34.9999883078
  0
ARC
  5
A2
330
1F
100
AcDbEntity
  8
0
  6
Continuous
 62
     7
370
    25
100
AcDbCircle
 10
0.0
 20
0.0
 30
0.0
 40
0.7017916666666668
100
AcDbArc
 50
126.1704889521
 51
128.8294993558
  0
ARC
  5
A3
330
1F
100
AcDbEntity
  8
0
  6
Continuous
 62
     7
370
    25
100
AcDbCircle
 10
-0.4461824906
 20
0.5543543913
 30
0.0
 40
0.0098175
100
AcDbArc
 50
220.0
 51
308.8294993558
  0
LINE
  5
A4
330
1F
100
AcDbEntity
  8
0
  6
Continuous
 62
     7
370
    25
100
AcDbLine
 10
-0.4537031319
 20
0.548043824
 30
0.0
 11
-0.4631101482
 21
0.5592546692
 31
0.0
  0
SPLINE
  5
A5
330
1F
100
AcDbEntity
  8
0
  6
Continuous
 62
     7
370
    25
100
AcDbSpline
210
0.0
220
0.0
230
1.0
 70
     8
 71
     2
 72
     6
 73
     3
 74
     0
 42
0.00000001
 43
0.00000001
 40
0.4998416110458511
 40
0.4998416110458511
 40
0.4998416110458511
 40
0.5000683766567064
 40
0.5000683766567064
 40
0.5000683766567064
 10
-0.4631101482064132
 20
0.5592546692028806
 30
0.0
 10
-0.4883043991272469
 20
0.5814196076048219
 30
0.0
 10
-0.5177462520386338
 20
0.5966898847169481
 30
0.0
  0
ARC
  5
A6
330
1F
100
AcDbEntity
  8
0
  6
Continuous
 62
     7
370
    25
100
AcDbCircle
 10
0.0
 20
0.0
 30
0.0
 40
0.7900000000155037
100
AcDbArc
 50
130.9480907536
 51
134.0518975884
  0
SPLINE
  5
A7
330
1F
100
AcDbEntity
  8
0
  6
Continuous
 62
     7
370
    25
100
AcDbSpline
210
0.0
220
0.0
230
1.0
 70
     8
 71
     2
 72
     6
 73
     3
 74
     0
 42
0.00000001
 43
0.00000001
 40
0.4999316233476694
 40
0.4999316233476694
 40
0.4999316233476694
 40
0.5001583889584029
 40
0.5001583889584029
 40
0.5001583889584029
 10
-0.5492946240647153
 20
0.5677811322479098
 30
0.0
 10
-0.5366484876492372
 20
0.5371204196372091
 30
0.0
 10
-0.5167637225722357
 20
0.5100902348023262
 30
0.0
  0
LINE
  5
A8
330
1F
100
AcDbEntity
  8
0
  6
Continuous
 62
     7
370
    25
100
AcDbLine
 10
-0.5167637226
 20
0.5100902348
 30
0.0
 11
-0.5064154164
 21
0.4997419244
 31
0.0
  0
ARC
  5
A9
330
1F
100
AcDbEntity
  8
0
  6
Continuous
 62
     7
370
    25
100
AcDbCircle
 10
-0.5133574386
 20
0.492799905
 30
0.0
 40
0.0098175
100
AcDbArc
 50
316.1704889521
 51
44.9999883078
  0
ARC
  5
AA
330
1F
100
AcDbEntity
  8
0
  6
Continuous
 62
     7
370
    25
100
AcDbCircle
 10
0.0
 20
0.0
 30
0.0
 40
0.7017916666666666
100
AcDbArc
 50
136.1704889521
 51
138.8294993558
  0
ARC
  5
AB
330
1F
100
AcDbEntity
  8
0
  6
Continuous
 62
     7
370
    25
100
AcDbCircle
 10
-0.5356666058
 20
0.4684537261
 30
0.0
 40
0.0098175000000001
100
AcDbArc
 50
230.0
 51
318.8294993558
  0
LINE
  5
AC
330
1F
100
AcDbEntity
  8
0
  6
Continuous
 62
     7
370
    25
100
AcDbLine
 10
-0.5419771732
 20
0.4609330848
 30
0.0
 11
-0.5531880186
 21
0.4703401008
 31
0.0
  0
SPLINE
  5
AD
330
1F
100
AcDbEntity
  8
0
  6
Continuous
 62
     7
370
    25
100
AcDbSpline
210
0.0
220
0.0
230
1.0
 70
     8
 71
     2
 72
     6
 73
     3
 74
     0
 42
0.00000001
 43
0.00000001
 40
0.4998416110459051
 40
0.4998416110459051
 40
0.4998416110459051
 40
0.5000683766567614
 40
0.5000683766567614
 40
0.5000683766567614
 10
-0.5531880186073722
 20
0.4703401008488835
 30
0.0
 10
-0.581848413408903
 20
0.4877933682707123
 30
0.0
 10
-0.613494634213857
 20
0.4977191314547653
 30
0.0
  0
ARC
  5
AE
330
1F
100
AcDbEntity
  8
0
  6
Continuous
 62
     7
370
    25
100
AcDbCircle
 10
0.0
 20
0.0
 30
0.0
 40
0.790000000014993
100
AcDbArc
 50
140.9480907539
 51
144.0518975887
  0
SPLINE
  5
AF
330
1F
100
AcDbEntity
  8
0
  6
Continuous
 62
     7
370
    25
100
AcDbSpline
210
0.0
220
0.0
230
1.0
 70
     8
 71
     2
 72
     6
 73
     3
 74
     0
 42
0.00000001
 43
0.00000001
 40
0.4999316233476233
 40
0.4999316233476233
 40
0.4999316233476233
 40
0.5001583889583636
 40
0.5001583889583636
 40
0.5001583889583636
 10
-0.6395437633992022
 20
0.4637712505799798
 30
0.0
 10
-0.6217655733415836
 20
0.4357723216293607
 30
0.0
 10
-0.5974891601887655
 20
0.4126057392560678
 30
0.0
  0
LINE
  5
B0
330
1F
100
AcDbEntity
  8
0
  6
Continuous
 62
     7
370
    25
100
AcDbLine
 10
-0.5974891602
 20
0.4126057393
 30
0.0
 11
-0.5855011027
 21
0.4042116074
 31
0.0
  0
ARC
  5
B1
330
1F
100
AcDbEntity
  8
0
  6
Continuous
 62
     7
370
    25
100
AcDbCircle
 10
-0.591132191
 20
0.3961695834
 30
0.0
 40
0.0098175
100
AcDbArc
 50
326.1704889521
 51
54.9999883078
  0
ARC
  5
B2
330
1F
100
AcDbEntity
  8
0
  6
Continuous
 62
     7
370
    25
100
AcDbCircle
 10
0.0
 20
0.0
 30
0.0
 40
0.7017916666666666
100
AcDbArc
 50
146.1704889521
 51
148.8294993558
  0
ARC
  5
B3
330
1F
100
AcDbEntity
  8
0
  6
Continuous
 62
     7
370
    25
100
AcDbCircle
 10
-0.6088747623
 20
0.3683193315
 30
0.0
 40
0.0098175000000001
100
AcDbArc
 50
240.0
 51
328.8294993558
  0
LINE
  5
B4
330
1F
100
AcDbEntity
  8
0
  6
Continuous
 62
     7
370
    25
100
AcDbLine
 10
-0.6137835123
 20
0.3598171271
 30
0.0
 11
-0.626457551
 21
0.3671344865
 31
0.0
  0
SPLINE
  5
B5
330
1F
100
AcDbEntity
  8
0
  6
Continuous
 62
     7
370
    25
100
AcDbSpline
210
0.0
220
0.0
230
1.0
 70
     8
 71
     2
 72
     6
 73
     3
 74
     0
 42
0.00000001
 43
0.00000001
 40
0.4998416110459197
 40
0.4998416110459197
 40
0.4998416110459197
 40
0.5000683766567776
 40
0.5000683766567776
 40
0.5000683766567776
 10
-0.6264575509955709
 20
0.3671344865295371
 30
0.0
 10
-0.6577132580826762
 20
0.3793457742729656
 30
0.0
 10
-0.6906022923738516
 20
0.3836254342377626
 30
0.0
  0
ARC
  5
B6
330
1F
100
AcDbEntity
  8
0
  6
Continuous
 62
     7
370
    25
100
AcDbCircle
 10
0.0
 20
0.0
 30
0.0
 40
0.7900000000149381
100
AcDbArc
 50
150.9480907539
 51
154.0518975888
  0
SPLINE
  5
B7
330
1F
100
AcDbEntity
  8
0
  6
Continuous
 62
     7
370
    25
100
AcDbSpline
210
0.0
220
0.0
230
1.0
 70
     8
 71
     2
 72
     6
 73
     3
 74
     0
 42
0.00000001
 43
0.00000001
 40
0.499931623347564
 40
0.499931623347564
 40
0.499931623347564
 40
0.5001583889583063
 40
0.5001583889583063
 40
0.5001583889583063
 10
-0.710360689103462
 20
0.3456699141406948
 30
0.0
 10
-0.6879906267128134
 20
0.321183502138305
 30
0.0
 10
-0.6600601920141218
 20
0.3025844271091632
 30
0.0
  0
LINE
  5
B8
330
1F
100
AcDbEntity
  8
0
  6
Continuous
 62
     7
370
    25
100
AcDbLine
 10
-0.660060192
 20
0.3025844271
 30
0.0
 11
-0.6467966344
 21
0.2963995253
 31
0.0
  0
ARC
  5
B9
330
1F
100
AcDbEntity
  8
0
  6
Continuous
 62
     7
370
    25
100
AcDbCircle
 10
-0.650945691
 20
0.2875018495
 30
0.0
 40
0.0098175
100
AcDbArc
 50
336.1704889521
 51
64.9999883078
  0
ARC
  5
BA
330
1F
100
AcDbEntity
  8
0
  6
Continuous
 62
     7
370
    25
100
AcDbCircle
 10
0.0
 20
0.0
 30
0.0
 40
0.7017916666666666
100
AcDbArc
 50
156.1704889521
 51
158.8294993558
  0
ARC
  5
BB
330
1F
100
AcDbEntity
  8
0
  6
Continuous
 62
     7
370
    25
100
AcDbCircle
 10
-0.6635825672
 20
0.2569937403
 30
0.0
 40
0.0098175000000001
100
AcDbArc
 50
250.0
 51
338.8294993558
  0
LINE
  5
BC
330
1F
100
AcDbEntity
  8
0
  6
Continuous
 62
     7
370
    25
100
AcDbLine
 10
-0.66694035
 20
0.247768308
 30
0.0
 11
-0.6806924877
 21
0.2527736766
 31
0.0
  0
SPLINE
  5
BD
330
1F
100
AcDbEntity
  8
0
  6
Continuous
 62
     7
370
    25
100
AcDbSpline
210
0.0
220
0.0
230
1.0
 70
     8
 71
     2
 72
     6
 73
     3
 74
     0
 42
0.00000001
 43
0.00000001
 40
0.4998416110458586
 40
0.4998416110458586
 40
0.4998416110458586
 40
0.5000683766567207
 40
0.5000683766567207
 40
0.5000683766567207
 10
-0.6806924876960291
 20
0.2527736766212871
 30
0.0
 10
-0.7135938182255098
 20
0.2593719508902176
 30
0.0
 10
-0.7467263493390811
 20
0.2578754723359269
 30
0.0
  0
ARC
  5
BE
330
1F
100
AcDbEntity
  8
0
  6
Continuous
 62
     7
370
    25
100
AcDbCircle
 10
0.0
 20
0.0
 30
0.0
 40
0.7900000000155732
100
AcDbArc
 50
160.9480907537
 51
164.0518975885
  0
SPLINE
  5
BF
330
1F
100
AcDbEntity
  8
0
  6
Continuous
 62
     7
370
    25
100
AcDbSpline
210
0.0
220
0.0
230
1.0
 70
     8
 71
     2
 72
     6
 73
     3
 74
     0
 42
0.00000001
 43
0.00000001
 40
0.499931623347619
 40
0.499931623347619
 40
0.499931623347619
 40
0.5001583889583667
 40
0.5001583889583667
 40
0.5001583889583667
 10
-0.7595936647284454
 20
0.2170655722841624
 30
0.0
 10
-0.7333114330268921
 20
0.1968356844701163
 30
0.0
 10
-0.7025756289032458
 20
0.1833692402706862
 30
0.0
  0
LINE
  5
C0
330
1F
100
AcDbEntity
  8
0
  6
Continuous
 62
     7
370
    25
100
AcDbLine
 10
-0.7025756289
 20
0.1833692403
 30
0.0
 11
-0.6884395776
 21
0.1795814937
 31
0.0
  0
ARC
  5
C1
330
1F
100
AcDbEntity
  8
0
  6
Continuous
 62
     7
370
    25
100
AcDbCircle
 10
-0.6909805355
 20
0.1700985174
 30
0.0
 40
0.0098175
100
AcDbArc
 50
346.1704889521
 51
74.9999883078
  0
ARC
  5
C2
330
1F
100
AcDbEntity
  8
0
  6
Continuous
 62
     7
370
    25
100
AcDbCircle
 10
0.0
 20
0.0
 30
0.0
 40
0.7017916666666666
100
AcDbArc
 50
166.1704889521
 51
168.8294993558
  0
ARC
  5
C3
330
1F
100
AcDbEntity
  8
0
  6
Continuous
 62
     7
370
    25
100
AcDbCircle
 10
-0.6981277516
 20
0.1378595244
 30
0.0
 40
0.0098175000000001
100
AcDbArc
 50
260.0
 51
348.8294993558
  0
LINE
  5
C4
330
1F
100
AcDbEntity
  8
0
  6
Continuous
 62
     7
370
    25
100
AcDbLine
 10
-0.6998325426
 20
0.1281911743
 30
0.0
 11
-0.7142449276
 21
0.1307324665
 31
0.0
  0
SPLINE
  5
C5
330
1F
100
AcDbEntity
  8
0
  6
Continuous
 62
     7
370
    25
100
AcDbSpline
210
0.0
220
0.0
230
1.0
 70
     8
 71
     2
 72
     6
 73
     3
 74
     0
 42
0.00000001
 43
0.00000001
 40
0.4998416110459351
 40
0.4998416110459351
 40
0.4998416110459351
 40
0.5000683766567945
 40
0.5000683766567945
 40
0.5000683766567945
 10
-0.7142449276081744
 20
0.1307324664509594
 30
0.0
 10
-0.7477921912998837
 20
0.1315172420155155
 30
0.0
 10
-0.7801615040429167
 20
0.1242900946811274
 30
0.0
  0
ARC
  5
C6
330
1F
100
AcDbEntity
  8
0
  6
Continuous
 62
     7
370
    25
100
AcDbCircle
 10
0.0
 20
0.0
 30
0.0
 40
0.7900000000147049
100
AcDbArc
 50
170.948090754
 51
174.0518975886
  0
SPLINE
  5
C7
330
1F
100
AcDbEntity
  8
0
  6
Continuous
 62
     7
370
    25
100
AcDbSpline
210
0.0
220
0.0
230
1.0
 70
     8
 71
     2
 72
     6
 73
     3
 74
     0
 42
0.00000001
 43
0.00000001
 40
0.4999316233475666
 40
0.4999316233475666
 40
0.4999316233475666
 40
0.500158388958306
 40
0.500158388958306
 40
0.500158388958306
 10
-0.7857467712224946
 20
0.081865802848894
 30
0.0
 10
-0.7563509425250787
 20
0.0665071141259935
 30
0.0
 10
-0.7237436608364514
 20
0.0585824718464859
 30
0.0
  0
LINE
  5
C8
330
1F
100
AcDbEntity
  8
0
  6
Continuous
 62
     7
370
    25
100
AcDbLine
 10
-0.7237436608
 20
0.0585824718
 30
0.0
 11
-0.7091646326
 21
0.0573069692
 31
0.0
  0
ARC
  5
C9
330
1F
100
AcDbEntity
  8
0
  6
Continuous
 62
     7
370
    25
100
AcDbCircle
 10
-0.7100202861
 20
0.0475268279
 30
0.0
 40
0.0098174999999999
100
AcDbArc
 50
356.1704889521
 51
84.9999883078
  0
ARC
  5
CA
330
1F
100
AcDbEntity
  8
0
  6
Continuous
 62
     7
370
    25
100
AcDbCircle
 10
0.0
 20
0.0
 30
0.0
 40
0.7017916666666667
100
AcDbArc
 50
176.1704889521
 51
178.8294993558
  0
ARC
  5
CB
330
1F
100
AcDbEntity
  8
0
  6
Continuous
 62
     7
370
    25
100
AcDbCircle
 10
-0.7114606776
 20
0.0145365166
 30
0.0
 40
0.0098175000000001
100
AcDbArc
 50
270.0
 51
358.8294993558
  0
LINE
  5
CC
330
1F
100
AcDbEntity
  8
0
  6
Continuous
 62
     7
370
    25
100
AcDbLine
 10
-0.7114606776
 20
0.0047190166
 30
0.0
 11
-0.7260953968
 21
0.0047190164
 31
0.0
  0
SPLINE
  5
CD
330
1F
100
AcDbEntity
  8
0
  6
Continuous
 62
     7
370
    25
100
AcDbSpline
210
0.0
220
0.0
230
1.0
 70
     8
 71
     2
 72
     6
 73
     3
 74
     0
 42
0.00000001
 43
0.00000001
 40
0.4998416110459212
 40
0.4998416110459212
 40
0.4998416110459212
 40
0.500068376656787
 40
0.500068376656787
 40
0.500068376656787
 10
-0.7260953968183023
 20
0.0047190164448373
 30
0.0
 10
-0.7592692770420689
 20
-0.0003335517002884
 30
0.0
 10
-0.7898918462277578
 20
-0.0130717745976443
 30
0.0
  0
ARC
  5
CE
330
1F
100
AcDbEntity
  8
0
  6
Continuous
 62
     7
370
    25
100
AcDbCircle
 10
0.0
 20
0.0
 30
0.0
 40
0.7900000000150015
100
AcDbArc
 50
180.948090754
 51
184.0518975883
  0
SPLINE
  5
CF
330
1F
100
AcDbEntity
  8
0
  6
Continuous
 62
     7
370
    25
100
AcDbSpline
210
0.0
220
0.0
230
1.0
 70
     8
 71
     2
 72
     6
 73
     3
 74
     0
 42
0.00000001
 43
0.00000001
 40
0.4999316233476026
 40
0.4999316233476026
 40
0.4999316233476026
 40
0.5001583889583393
 40
0.5001583889583393
 40
0.5001583889583393
 10
-0.788025359682316
 20
-0.0558214175743151
 30
0.0
 10
-0.7564091113669112
 20
-0.0658422412190335
 30
0.0
 10
-0.7229211078649587
 20
-0.0679842953306478
 30
0.0
  0
LINE
  5
D0
330
1F
100
AcDbEntity
  8
0
  6
Continuous
 62
     7
370
    25
100
AcDbLine
 10
-0.7229211079
 20
-0.0679842953
 30
0.0
 11
-0.7083420791
 21
-0.0667087986
 31
0.0
  0
ARC
  5
D1
330
1F
100
AcDbEntity
  8
0
  6
Continuous
 62
     7
370
    25
100
AcDbCircle
 10
-0.7074864296
 20
-0.0764889402
 30
0.0
 40
0.0098175
100
AcDbArc
 50
6.1704889521
 51
94.9999883078
  0
ARC
  5
D2
330
1F
100
AcDbEntity
  8
0
  6
Continuous
 62
     7
370
    25
100
AcDbCircle
 10
0.0
 20
0.0
 30
0.0
 40
0.7017916666666668
100
AcDbArc
 50
186.1704889521
 51
188.8294993558
  0
ARC
  5
D3
330
1F
100
AcDbEntity
  8
0
  6
Continuous
 62
     7
370
    25
100
AcDbCircle
 10
-0.7031762309
 20
-0.1092281759
 30
0.0
 40
0.0098175
100
AcDbArc
 50
280.0
 51
8.8294993558
  0
LINE
  5
D4
330
1F
100
AcDbEntity
  8
0
  6
Continuous
 62
     7
370
    25
100
AcDbLine
 10
-0.7014714399
 20
-0.118896526
 30
0.0
 11
-0.7158838248
 21
-0.1214378185
 31
0.0
  0
SPLINE
  5
D5
330
1F
100
AcDbEntity
  8
0
  6
Continuous
 62
     7
370
    25
100
AcDbSpline
210
0.0
220
0.0
230
1.0
 70
     8
 71
     2
 72
     6
 73
     3
 74
     0
 42
0.00000001
 43
0.00000001
 40
0.4998416110458205
 40
0.4998416110458205
 40
0.4998416110458205
 40
0.5000683766566771
 40
0.5000683766566771
 40
0.5000683766566771
 10
-0.7158838248189343
 20
-0.1214378184942739
 30
0.0
 10
-0.7476763500099888
 20
-0.1321742106194619
 30
0.0
 10
-0.7756217243688094
 20
-0.1500364646186185
 30
0.0
  0
ARC
  5
D6
330
1F
100
AcDbEntity
  8
0
  6
Continuous
 62
     7
370
    25
100
AcDbCircle
 10
0.0
 20
0.0
 30
0.0
 40
0.7900000000160308
100
AcDbArc
 50
190.9480907535
 51
194.0518975887
  0
SPLINE
  5
D7
330
1F
100
AcDbEntity
  8
0
  6
Continuous
 62
     7
370
    25
100
AcDbSpline
210
0.0
220
0.0
230
1.0
 70
     8
 71
     2
 72
     6
 73
     3
 74
     0
 42
0.00000001
 43
0.00000001
 40
0.49993162334758
 40
0.49993162334758
 40
0.49993162334758
 40
0.5001583889583212
 40
0.5001583889583212
 40
0.5001583889583212
 10
-0.766360196348987
 20
-0.1918125324812529
 30
0.0
 10
-0.7334841721215872
 20
-0.1961910133943996
 30
0.0
 10
-0.7001329628463964
 20
-0.192485394109642
 30
0.0
  0
LINE
  5
D8
330
1F
100
AcDbEntity
  8
0
  6
Continuous
 62
     7
370
    25
100
AcDbLine
 10
-0.7001329628
 20
-0.1924853941
 30
0.0
 11
-0.68599691
 21
-0.1886976533
 31
0.0
  0
ARC
  5
D9
330
1F
100
AcDbEntity
  8
0
  6
Continuous
 62
     7
370
    25
100
AcDbCircle
 10
-0.683455956
 20
-0.1981806306
 30
0.0
 40
0.0098175000000001
100
AcDbArc
 50
16.1704889521
 51
104.9999883078
  0
ARC
  5
DA
330
1F
100
AcDbEntity
  8
0
  6
Continuous
 62
     7
370
    25
100
AcDbCircle
 10
0.0
 20
0.0
 30
0.0
 40
0.7017916666666667
100
AcDbArc
 50
196.1704889521
 51
198.8294993558
  0
ARC
  5
DB
330
1F
100
AcDbEntity
  8
0
  6
Continuous
 62
     7
370
    25
100
AcDbCircle
 10
-0.6735261302
 20
-0.2296740255
 30
0.0
 40
0.0098175000000001
100
AcDbArc
 50
290.0
 51
18.8294993558
  0
LINE
  5
DC
330
1F
100
AcDbEntity
  8
0
  6
Continuous
 62
     7
370
    25
100
AcDbLine
 10
-0.6701683475
 20
-0.2388994578
 30
0.0
 11
-0.6839204851
 21
-0.2439048268
 31
0.0
  0
SPLINE
  5
DD
330
1F
100
AcDbEntity
  8
0
  6
Continuous
 62
     7
370
    25
100
AcDbSpline
210
0.0
220
0.0
230
1.0
 70
     8
 71
     2
 72
     6
 73
     3
 74
     0
 42
0.00000001
 43
0.00000001
 40
0.4998416110458015
 40
0.4998416110458015
 40
0.4998416110458015
 40
0.500068376656666
 40
0.500068376656666
 40
0.500068376656666
 10
-0.6839204850553098
 20
-0.2439048267609737
 30
0.0
 10
-0.7133656554249788
 20
-0.2599988230277195
 30
0.0
 10
-0.7377847288989862
 20
-0.2824423725840579
 30
0.0
  0
ARC
  5
DE
330
1F
100
AcDbEntity
  8
0
  6
Continuous
 62
     7
370
    25
100
AcDbCircle
 10
0.0
 20
0.0
 30
0.0
 40
0.790000000017014
100
AcDbArc
 50
200.9480907534
 51
204.0518975883
  0
SPLINE
  5
DF
330
1F
100
AcDbEntity
  8
0
  6
Continuous
 62
     7
370
    25
100
AcDbSpline
210
0.0
220
0.0
230
1.0
 70
     8
 71
     2
 72
     6
 73
     3
 74
     0
 42
0.00000001
 43
0.00000001
 40
0.4999316233476724
 40
0.4999316233476724
 40
0.4999316233476724
 40
0.5001583889584018
 40
0.5001583889584018
 40
0.5001583889584018
 10
-0.7214095662455785
 20
-0.3219755206396103
 30
0.0
 10
-0.688272687468517
 20
-0.3205786208900259
 30
0.0
 10
-0.6560716320396203
 20
-0.3111379215726569
 30
0.0
  0
LINE
  5
E0
330
1F
100
AcDbEntity
  8
0
  6
Continuous
 62
     7
370
    25
100
AcDbLine
 10
-0.656071632
 20
-0.3111379216
 30
0.0
 11
-0.6428080719
 21
-0.3049530252
 31
0.0
  0
ARC
  5
E1
330
1F
100
AcDbEntity
  8
0
  6
Continuous
 62
     7
370
    25
100
AcDbCircle
 10
-0.6386590189
 20
-0.3138507028
 30
0.0
 40
0.0098175
100
AcDbArc
 50
26.1704889521
 51
114.9999883078
  0
ARC
  5
E2
330
1F
100
AcDbEntity
  8
0
  6
Continuous
 62
     7
370
    25
100
AcDbCircle
 10
0.0
 20
0.0
 30
0.0
 40
0.7017916666666668
100
AcDbArc
 50
206.1704889521
 51
208.8294993558
  0
ARC
  5
E3
330
1F
100
AcDbEntity
  8
0
  6
Continuous
 62
     7
370
    25
100
AcDbCircle
 10
-0.6234112789
 20
-0.3431413461
 30
0.0
 40
0.0098175
100
AcDbArc
 50
300.0
 51
28.8294993558
  0
LINE
  5
E4
330
1F
100
AcDbEntity
  8
0
  6
Continuous
 62
     7
370
    25
100
AcDbLine
 10
-0.6185025289
 20
-0.3516435505
 30
0.0
 11
-0.6311765674
 21
-0.3589609103
 31
0.0
  0
SPLINE
  5
E5
330
1F
100
AcDbEntity
  8
0
  6
Continuous
 62
     7
370
    25
100
AcDbSpline
210
0.0
220
0.0
230
1.0
 70
     8
 71
     2
 72
     6
 73
     3
 74
     0
 42
0.00000001
 43
0.00000001
 40
0.499841611045878
 40
0.499841611045878
 40
0.499841611045878
 40
0.5000683766567277
 40
0.5000683766567277
 40
0.5000683766567277
 10
-0.6311765674362504
 20
-0.3589609102917921
 30
0.0
 10
-0.6573797063785595
 20
-0.3799235027688588
 30
0.0
 10
-0.6775305177736876
 20
-0.4062664119862654
 30
0.0
  0
ARC
  5
E6
330
1F
100
AcDbEntity
  8
0
  6
Continuous
 62
     7
370
    25
100
AcDbCircle
 10
0.0
 20
0.0
 30
0.0
 40
0.7900000000154482
100
AcDbArc
 50
210.9480907537
 51
214.0518975885
  0
SPLINE
  5
E7
330
1F
100
AcDbEntity
  8
0
  6
Continuous
 62
     7
370
    25
100
AcDbSpline
210
0.0
220
0.0
230
1.0
 70
     8
 71
     2
 72
     6
 73
     3
 74
     0
 42
0.00000001
 43
0.00000001
 40
0.4999316233475812
 40
0.4999316233475812
 40
0.4999316233475812
 40
0.5001583889583211
 40
0.5001583889583211
 40
0.5001583889583211
 10
-0.6545392715230735
 20
-0.4423554455392041
 30
0.0
 10
-0.6221483854868918
 20
-0.4352256092254075
 30
0.0
 10
-0.5920758966761123
 20
-0.4203366807518856
 30
0.0
  0
LINE
  5
E8
330
1F
100
AcDbEntity
  8
0
  6
Continuous
 62
     7
370
    25
100
AcDbLine
 10
-0.5920758967
 20
-0.4203366808
 30
0.0
 11
-0.5800878358
 21
-0.4119425538
 31
0.0
  0
ARC
  5
E9
330
1F
100
AcDbEntity
  8
0
  6
Continuous
 62
     7
370
    25
100
AcDbCircle
 10
-0.5744567508
 20
-0.4199845801
 30
0.0
 40
0.0098174999999999
100
AcDbArc
 50
36.1704889521
 51
124.9999883078
  0
ARC
  5
EA
330
1F
100
AcDbEntity
  8
0
  6
Continuous
 62
     7
370
    25
100
AcDbCircle
 10
0.0
 20
0.0
 30
0.0
 40
0.7017916666666666
100
AcDbArc
 50
216.1704889521
 51
218.8294993558
  0
ARC
  5
EB
330
1F
100
AcDbEntity
  8
0
  6
Continuous
 62
     7
370
    25
100
AcDbCircle
 10
-0.5543543913
 20
-0.4461824906
 30
0.0
 40
0.0098175000000001
100
AcDbArc
 50
310.0
 51
38.8294993558
  0
LINE
  5
EC
330
1F
100
AcDbEntity
  8
0
  6
Continuous
 62
     7
370
    25
100
AcDbLine
 10
-0.548043824
 20
-0.4537031319
 30
0.0
 11
-0.5592546692
 21
-0.4631101482
 31
0.0
  0
SPLINE
  5
ED
330
1F
100
AcDbEntity
  8
0
  6
Continuous
 62
     7
370
    25
100
AcDbSpline
210
0.0
220
0.0
230
1.0
 70
     8
 71
     2
 72
     6
 73
     3
 74
     0
 42
0.00000001
 43
0.00000001
 40
0.4998416110457871
 40
0.4998416110457871
 40
0.4998416110457871
 40
0.5000683766566532
 40
0.5000683766566532
 40
0.5000683766566532
 10
-0.5592546692098567
 20
-0.4631101481990919
 30
0.0
 10
-0.5814196076147344
 20
-0.4883043991198223
 30
0.0
 10
-0.5966898847291457
 20
-0.5177462520315071
 30
0.0
  0
ARC
  5
EE
330
1F
100
AcDbEntity
  8
0
  6
Continuous
 62
     7
370
    25
100
AcDbCircle
 10
0.0
 20
0.0
 30
0.0
 40
0.7900000000164453
100
AcDbArc
 50
220.9480907533
 51
224.0518975881
  0
SPLINE
  5
EF
330
1F
100
AcDbEntity
  8
0
  6
Continuous
 62
     7
370
    25
100
AcDbSpline
210
0.0
220
0.0
230
1.0
 70
     8
 71
     2
 72
     6
 73
     3
 74
     0
 42
0.00000001
 43
0.00000001
 40
0.4999316233476502
 40
0.4999316233476502
 40
0.4999316233476502
 40
0.5001583889583728
 40
0.5001583889583728
 40
0.5001583889583728
 10
-0.5677811322489589
 20
-0.5492946240589063
 30
0.0
 10
-0.5371204196393012
 20
-0.5366484876445891
 30
0.0
 10
-0.5100902348051147
 20
-0.5167637225694394
 30
0.0
  0
LINE
  5
F0
330
1F
100
AcDbEntity
  8
0
  6
Continuous
 62
     7
370
    25
100
AcDbLine
 10
-0.5100902348
 20
-0.5167637226
 30
0.0
 11
-0.4997419244
 21
-0.5064154164
 31
0.0
  0
ARC
  5
F1
330
1F
100
AcDbEntity
  8
0
  6
Continuous
 62
     7
370
    25
100
AcDbCircle
 10
-0.492799905
 20
-0.5133574386
 30
0.0
 40
0.0098175
100
AcDbArc
 50
46.1704889521
 51
134.9999883078
  0
ARC
  5
F2
330
1F
100
AcDbEntity
  8
0
  6
Continuous
 62
     7
370
    25
100
AcDbCircle
 10
0.0
 20
0.0
 30
0.0
 40
0.7017916666666666
100
AcDbArc
 50
226.1704889521
 51
228.8294993558
  0
ARC
  5
F3
330
1F
100
AcDbEntity
  8
0
  6
Continuous
 62
     7
370
    25
100
AcDbCircle
 10
-0.4684537261
 20
-0.5356666058
 30
0.0
 40
0.0098175000000001
100
AcDbArc
 50
320.0
 51
48.8294993558
  0
LINE
  5
F4
330
1F
100
AcDbEntity
  8
0
  6
Continuous
 62
     7
370
    25
100
AcDbLine
 10
-0.4609330848
 20
-0.5419771732
 30
0.0
 11
-0.4703401009
 21
-0.5531880186
 31
0.0
  0
SPLINE
  5
F5
330
1F
100
AcDbEntity
  8
0
  6
Continuous
 62
     7
370
    25
100
AcDbSpline
210
0.0
220
0.0
230
1.0
 70
     8
 71
     2
 72
     6
 73
     3
 74
     0
 42
0.00000001
 43
0.00000001
 40
0.4998416110458859
 40
0.4998416110458859
 40
0.4998416110458859
 40
0.500068376656747
 40
0.500068376656747
 40
0.500068376656747
 10
-0.4703401008502756
 20
-0.5531880186067077
 30
0.0
 10
-0.4877933682731596
 20
-0.5818484134087089
 30
0.0
 10
-0.4977191314579508
 20
-0.6134946342142586
 30
0.0
  0
ARC
  5
F6
330
1F
100
AcDbEntity
  8
0
  6
Continuous
 62
     7
370
    25
100
AcDbCircle
 10
0.0
 20
0.0
 30
0.0
 40
0.7900000000153309
100
AcDbArc
 50
230.9480907538
 51
234.0518975885
  0
SPLINE
  5
F7
330
1F
100
AcDbEntity
  8
0
  6
Continuous
 62
     7
370
    25
100
AcDbSpline
210
0.0
220
0.0
230
1.0
 70
     8
 71
     2
 72
     6
 73
     3
 74
     0
 42
0.00000001
 43
0.00000001
 40
0.4999316233476297
 40
0.4999316233476297
 40
0.4999316233476297
 40
0.5001583889583627
 40
0.5001583889583627
 40
0.5001583889583627
 10
-0.4637712505791493
 20
-0.639543763396525
 30
0.0
 10
-0.4357723216295241
 20
-0.6217655733392558
 30
0.0
 10
-0.4126057392569102
 20
-0.5974891601872103
 30
0.0
  0
LINE
  5
F8
330
1F
100
AcDbEntity
  8
0
  6
Continuous
 62
     7
370
    25
100
AcDbLine
 10
-0.4126057393
 20
-0.5974891602
 30
0.0
 11
-0.4042116074
 21
-0.5855011027
 31
0.0
  0
ARC
  5
F9
330
1F
100
AcDbEntity
  8
0
  6
Continuous
 62
     7
370
    25
100
AcDbCircle
 10
-0.3961695834
 20
-0.591132191
 30
0.0
 40
0.0098175000000001
100
AcDbArc
 50
56.1704889521
 51
144.9999883078
  0
ARC
  5
FA
330
1F
100
AcDbEntity
  8
0
  6
Continuous
 62
     7
370
    25
100
AcDbCircle
 10
0.0
 20
0.0
 30
0.0
 40
0.7017916666666665
100
AcDbArc
 50
236.1704889521
 51
238.8294993558
  0
ARC
  5
FB
330
1F
100
AcDbEntity
  8
0
  6
Continuous
 62
     7
370
    25
100
AcDbCircle
 10
-0.3683193315
 20
-0.6088747623
 30
0.0
 40
0.0098175000000001
100
AcDbArc
 50
330.0
 51
58.8294993558
  0
LINE
  5
FC
330
1F
100
AcDbEntity
  8
0
  6
Continuous
 62
     7
370
    25
100
AcDbLine
 10
-0.3598171271
 20
-0.6137835123
 30
0.0
 11
-0.3671344865
 21
-0.626457551
 31
0.0
  0
SPLINE
  5
FD
330
1F
100
AcDbEntity
  8
0
  6
Continuous
 62
     7
370
    25
100
AcDbSpline
210
0.0
220
0.0
230
1.0
 70
     8
 71
     2
 72
     6
 73
     3
 74
     0
 42
0.00000001
 43
0.00000001
 40
0.4998416110458501
 40
0.4998416110458501
 40
0.4998416110458501
 40
0.5000683766567133
 40
0.5000683766567133
 40
0.5000683766567133
 10
-0.3671344865353111
 20
-0.6264575509929264
 30
0.0
 10
-0.3793457742814138
 20
-0.657713258080027
 30
0.0
 10
-0.383625434248512
 20
-0.6906022923712741
 30
0.0
  0
ARC
  5
FE
330
1F
100
AcDbEntity
  8
0
  6
Continuous
 62
     7
370
    25
100
AcDbCircle
 10
0.0
 20
0.0
 30
0.0
 40
0.790000000015808
100
AcDbArc
 50
240.9480907536
 51
244.0518975883
  0
SPLINE
  5
FF
330
1F
100
AcDbEntity
  8
0
  6
Continuous
 62
     7
370
    25
100
AcDbSpline
210
0.0
220
0.0
230
1.0
 70
     8
 71
     2
 72
     6
 73
     3
 74
     0
 42
0.00000001
 43
0.00000001
 40
0.4999316233476407
 40
0.4999316233476407
 40
0.4999316233476407
 40
0.5001583889583684
 40
0.5001583889583684
 40
0.5001583889583684
 10
-0.3456699141464689
 20
-0.7103606890965734
 30
0.0
 10
-0.3211835021472962
 20
-0.6879906267051099
 30
0.0
 10
-0.3025844271206136
 20
-0.6600601920063193
 30
0.0
  0
LINE
  5
100
330
1F
100
AcDbEntity
  8
0
  6
Continuous
 62
     7
370
    25
100
AcDbLine
 10
-0.3025844271
 20
-0.660060192
 30
0.0
 11
-0.2963995253
 21
-0.6467966344
 31
0.0
  0
ARC
  5
101
330
1F
100
AcDbEntity
  8
0
  6
Continuous
 62
     7
370
    25
100
AcDbCircle
 10
-0.2875018495
 20
-0.650945691
 30
0.0
 40
0.0098175
100
AcDbArc
 50
66.1704889521
 51
154.9999883078
  0
ARC
  5
102
330
1F
100
AcDbEntity
  8
0
  6
Continuous
 62
     7
370
    25
100
AcDbCircle
 10
0.0
 20
0.0
 30
0.0
 40
0.7017916666666668
100
AcDbArc
 50
246.1704889521
 51
248.8294993558
  0
ARC
  5
103
330
1F
100
AcDbEntity
  8
0
  6
Continuous
 62
     7
370
    25
100
AcDbCircle
 10
-0.2569937403
 20
-0.6635825672
 30
0.0
 40
0.0098175
100
AcDbArc
 50
340.0
 51
68.8294993558
  0
LINE
  5
104
330
1F
100
AcDbEntity
  8
0
  6
Continuous
 62
     7
370
    25
100
AcDbLine
 10
-0.247768308
 20
-0.66694035
 30
0.0
 11
-0.2527736766
 21
-0.6806924877
 31
0.0
  0
SPLINE
  5
105
330
1F
100
AcDbEntity
  8
0
  6
Continuous
 62
     7
370
    25
100
AcDbSpline
210
0.0
220
0.0
230
1.0
 70
     8
 71
     2
 72
     6
 73
     3
 74
     0
 42
0.00000001
 43
0.00000001
 40
0.4998416110458449
 40
0.4998416110458449
 40
0.4998416110458449
 40
0.5000683766567043
 40
0.5000683766567043
 40
0.5000683766567043
 10
-0.2527736766160791
 20
-0.6806924876971524
 30
0.0
 10
-0.2593719508854118
 20
-0.7135938182259081
 30
0.0
 10
-0.2578754723317095
 20
-0.7467263493387488
 30
0.0
  0
ARC
  5
106
330
1F
100
AcDbEntity
  8
0
  6
Continuous
 62
     7
370
    25
100
AcDbCircle
 10
0.0
 20
0.0
 30
0.0
 40
0.7900000000158073
100
AcDbArc
 50
250.9480907536
 51
254.0518975884
  0
SPLINE
  5
107
330
1F
100
AcDbEntity
  8
0
  6
Continuous
 62
     7
370
    25
100
AcDbSpline
210
0.0
220
0.0
230
1.0
 70
     8
 71
     2
 72
     6
 73
     3
 74
     0
 42
0.00000001
 43
0.00000001
 40
0.4999316233476724
 40
0.4999316233476724
 40
0.4999316233476724
 40
0.5001583889584107
 40
0.5001583889584107
 40
0.5001583889584107
 10
-0.2170655722833625
 20
-0.7595936647269985
 30
0.0
 10
-0.1968356844718513
 20
-0.7333114330256458
 30
0.0
 10
-0.1833692402743929
 20
-0.7025756289025706
 30
0.0
  0
LINE
  5
108
330
1F
100
AcDbEntity
  8
0
  6
Continuous
 62
     7
370
    25
100
AcDbLine
 10
-0.1833692403
 20
-0.7025756289
 30
0.0
 11
-0.1795814937
 21
-0.6884395776
 31
0.0
  0
ARC
  5
109
330
1F
100
AcDbEntity
  8
0
  6
Continuous
 62
     7
370
    25
100
AcDbCircle
 10
-0.1700985174
 20
-0.6909805355
 30
0.0
 40
0.0098175000000001
100
AcDbArc
 50
76.1704889521
 51
164.9999883078
  0
ARC
  5
10A
330
1F
100
AcDbEntity
  8
0
  6
Continuous
 62
     7
370
    25
100
AcDbCircle
 10
0.0
 20
0.0
 30
0.0
 40
0.7017916666666666
100
AcDbArc
 50
256.1704889521
 51
258.8294993558
  0
ARC
  5
10B
330
1F
100
AcDbEntity
  8
0
  6
Continuous
 62
     7
370
    25
100
AcDbCircle
 10
-0.1378595244
 20
-0.6981277516
 30
0.0
 40
0.0098175000000001
100
AcDbArc
 50
350.0
 51
78.8294993558
  0
LINE
  5
10C
330
1F
100
AcDbEntity
  8
0
  6
Continuous
 62
     7
370
    25
100
AcDbLine
 10
-0.1281911743
 20
-0.6998325426
 30
0.0
 11
-0.1307324665
 21
-0.7142449276
 31
0.0
  0
SPLINE
  5
10D
330
1F
100
AcDbEntity
  8
0
  6
Continuous
 62
     7
370
    25
100
AcDbSpline
210
0.0
220
0.0
230
1.0
 70
     8
 71
     2
 72
     6
 73
     3
 74
     0
 42
0.00000001
 43
0.00000001
 40
0.4998416110458188
 40
0.4998416110458188
 40
0.4998416110458188
 40
0.5000683766566814
 40
0.5000683766566814
 40
0.5000683766566814
 10
-0.1307324664521091
 20
-0.7142449276077023
 30
0.0
 10
-0.1315172420208618
 20
-0.7477921912999579
 30
0.0
 10
-0.1242900946904469
 20
-0.7801615040435042
 30
0.0
  0
ARC
  5
10E
330
1F
100
AcDbEntity
  8
0
  6
Continuous
 62
     7
370
    25
100
AcDbCircle
 10
0.0
 20
0.0
 30
0.0
 40
0.7900000000160877
100
AcDbArc
 50
260.9480907535
 51
264.0518975886
  0
SPLINE
  5
10F
330
1F
100
AcDbEntity
  8
0
  6
Continuous
 62
     7
370
    25
100
AcDbSpline
210
0.0
220
0.0
230
1.0
 70
     8
 71
     2
 72
     6
 73
     3
 74
     0
 42
0.00000001
 43
0.00000001
 40
0.499931623347654
 40
0.499931623347654
 40
0.499931623347654
 40
0.5001583889583848
 40
0.5001583889583848
 40
0.5001583889583848
 10
-0.0818658028488634
 20
-0.7857467712228137
 30
0.0
 10
-0.0665071141292874
 20
-0.7563509425249954
 30
0.0
 10
-0.0585824718525437
 20
-0.7237436608362072
 30
0.0
  0
LINE
  5
110
330
1F
100
AcDbEntity
  8
0
  6
Continuous
 62
     7
370
    25
100
AcDbLine
 10
-0.0585824719
 20
-0.7237436608
 30
0.0
 11
-0.0573069692
 21
-0.7091646326
 31
0.0
  0
ARC
  5
111
330
1F
100
AcDbEntity
  8
0
  6
Continuous
 62
     7
370
    25
100
AcDbCircle
 10
-0.0475268279
 20
-0.7100202861
 30
0.0
 40
0.0098175000000001
100
AcDbArc
 50
86.1704889521
 51
174.9999883078
  0
ARC
  5
112
330
1F
100
AcDbEntity
  8
0
  6
Continuous
 62
     7
370
    25
100
AcDbCircle
 10
0.0
 20
0.0
 30
0.0
 40
0.7017916666666666
100
AcDbArc
 50
266.1704889521
 51
268.8294993558
  0
ARC
  5
113
330
1F
100
AcDbEntity
  8
0
  6
Continuous
 62
     7
370
    25
100
AcDbCircle
 10
-0.0145365166
 20
-0.7114606776
 30
0.0
 40
0.0098175000000001
100
AcDbArc
 50
0.0
 51
88.8294993558
  0
LINE
  5
114
330
1F
100
AcDbEntity
  8
0
  6
Continuous
 62
     7
370
    25
100
AcDbLine
 10
-0.0047190166
 20
-0.7114606776
 30
0.0
 11
-0.0047190164
 21
-0.7260953968
 31
0.0
  0
SPLINE
  5
115
330
1F
100
AcDbEntity
  8
0
  6
Continuous
 62
     7
370
    25
100
AcDbSpline
210
0.0
220
0.0
230
1.0
 70
     8
 71
     2
 72
     6
 73
     3
 74
     0
 42
0.00000001
 43
0.00000001
 40
0.4998416110458957
 40
0.4998416110458957
 40
0.4998416110458957
 40
0.5000683766567569
 40
0.5000683766567569
 40
0.5000683766567569
 10
-0.0047190164413395
 20
-0.7260953968186039
 30
0.0
 10
0.0003335517026658
 20
-0.7592692770415191
 30
0.0
 10
0.0130717745985853
 20
-0.7898918462264614
 30
0.0
  0
ARC
  5
116
330
1F
100
AcDbEntity
  8
0
  6
Continuous
 62
     7
370
    25
100
AcDbCircle
 10
0.0
 20
0.0
 30
0.0
 40
0.7900000000152121
100
AcDbArc
 50
270.9480907539
 51
274.0518975887
  0
SPLINE
  5
117
330
1F
100
AcDbEntity
  8
0
  6
Continuous
 62
     7
370
    25
100
AcDbSpline
210
0.0
220
0.0
230
1.0
 70
     8
 71
     2
 72
     6
 73
     3
 74
     0
 42
0.00000001
 43
0.00000001
 40
0.4999316233476711
 40
0.4999316233476711
 40
0.4999316233476711
 40
0.5001583889584101
 40
0.5001583889584101
 40
0.5001583889584101
 10
0.055821417580288
 20
-0.7880253596847244
 30
0.0
 10
0.0658422412227602
 20
-0.7564091113683121
 30
0.0
 10
0.0679842953319625
 20
-0.7229211078653122
 30
0.0
  0
LINE
  5
118
330
1F
100
AcDbEntity
  8
0
  6
Continuous
 62
     7
370
    25
100
AcDbLine
 10
0.0679842953
 20
-0.7229211079
 30
0.0
 11
0.0667087986
 21
-0.7083420791
 31
0.0
  0
ARC
  5
119
330
1F
100
AcDbEntity
  8
0
  6
Continuous
 62
     7
370
    25
100
AcDbCircle
 10
0.0764889402
 20
-0.7074864296
 30
0.0
 40
0.0098175000000002
100
AcDbArc
 50
96.1704889521
 51
184.9999883078
  0
ARC
  5
11A
330
1F
100
AcDbEntity
  8
0
  6
Continuous
 62
     7
370
    25
100
AcDbCircle
 10
0.0
 20
0.0
 30
0.0
 40
0.7017916666666667
100
AcDbArc
 50
276.1704889521
 51
278.8294993558
  0
ARC
  5
11B
330
1F
100
AcDbEntity
  8
0
  6
Continuous
 62
     7
370
    25
100
AcDbCircle
 10
0.1092281759
 20
-0.7031762309
 30
0.0
 40
0.0098175000000002
100
AcDbArc
 50
10.0
 51
98.8294993558
  0
LINE
  5
11C
330
1F
100
AcDbEntity
  8
0
  6
Continuous
 62
     7
370
    25
100
AcDbLine
 10
0.118896526
 20
-0.7014714399
 30
0.0
 11
0.1214378185
 21
-0.7158838248
 31
0.0
  0
SPLINE
  5
11D
330
1F
100
AcDbEntity
  8
0
  6
Continuous
 62
     7
370
    25
100
AcDbSpline
210
0.0
220
0.0
230
1.0
 70
     8
 71
     2
 72
     6
 73
     3
 74
     0
 42
0.00000001
 43
0.00000001
 40
0.4998416110459214
 40
0.4998416110459214
 40
0.4998416110459214
 40
0.5000683766567877
 40
0.5000683766567877
 40
0.5000683766567877
 10
0.1214378184867777
 20
-0.7158838248191791
 30
0.0
 10
0.1321742106155745
 20
-0.7476763500098527
 30
0.0
 10
0.1500364646189506
 20
-0.7756217243679625
 30
0.0
  0
ARC
  5
11E
330
1F
100
AcDbEntity
  8
0
  6
Continuous
 62
     7
370
    25
100
AcDbCircle
 10
0.0
 20
0.0
 30
0.0
 40
0.7900000000151147
100
AcDbArc
 50
280.948090754
 51
284.0518975882
  0
SPLINE
  5
11F
330
1F
100
AcDbEntity
  8
0
  6
Continuous
 62
     7
370
    25
100
AcDbSpline
210
0.0
220
0.0
230
1.0
 70
     8
 71
     2
 72
     6
 73
     3
 74
     0
 42
0.00000001
 43
0.00000001
 40
0.4999316233476648
 40
0.4999316233476648
 40
0.4999316233476648
 40
0.5001583889583926
 40
0.5001583889583926
 40
0.5001583889583926
 10
0.1918125324748445
 20
-0.7663601963478287
 30
0.0
 10
0.1961910133847286
 20
-0.7334841721218548
 30
0.0
 10
0.1924853940976661
 20
-0.700132962848146
 30
0.0
  0
LINE
  5
120
330
1F
100
AcDbEntity
  8
0
  6
Continuous
 62
     7
370
    25
100
AcDbLine
 10
0.1924853941
 20
-0.7001329628
 30
0.0
 11
0.1886976533
 21
-0.68599691
 31
0.0
  0
ARC
  5
121
330
1F
100
AcDbEntity
  8
0
  6
Continuous
 62
     7
370
    25
100
AcDbCircle
 10
0.1981806306
 20
-0.683455956
 30
0.0
 40
0.0098175000000001
100
AcDbArc
 50
106.1704889521
 51
194.9999883078
  0
ARC
  5
122
330
1F
100
AcDbEntity
  8
0
  6
Continuous
 62
     7
370
    25
100
AcDbCircle
 10
0.0
 20
0.0
 30
0.0
 40
0.7017916666666665
100
AcDbArc
 50
286.1704889521
 51
288.8294993558
  0
ARC
  5
123
330
1F
100
AcDbEntity
  8
0
  6
Continuous
 62
     7
370
    25
100
AcDbCircle
 10
0.2296740255
 20
-0.6735261302
 30
0.0
 40
0.0098175000000001
100
AcDbArc
 50
20.0
 51
108.8294993558
  0
LINE
  5
124
330
1F
100
AcDbEntity
  8
0
  6
Continuous
 62
     7
370
    25
100
AcDbLine
 10
0.2388994578
 20
-0.6701683475
 30
0.0
 11
0.2439048268
 21
-0.6839204851
 31
0.0
  0
SPLINE
  5
125
330
1F
100
AcDbEntity
  8
0
  6
Continuous
 62
     7
370
    25
100
AcDbSpline
210
0.0
220
0.0
230
1.0
 70
     8
 71
     2
 72
     6
 73
     3
 74
     0
 42
0.00000001
 43
0.00000001
 40
0.4998416110459138
 40
0.4998416110459138
 40
0.4998416110459138
 40
0.5000683766567816
 40
0.5000683766567816
 40
0.5000683766567816
 10
0.2439048267565765
 20
-0.6839204850580809
 30
0.0
 10
0.2599988230268437
 20
-0.713365655425869
 30
0.0
 10
0.2824423725868871
 20
-0.7377847288978506
 30
0.0
  0
ARC
  5
126
330
1F
100
AcDbEntity
  8
0
  6
Continuous
 62
     7
370
    25
100
AcDbCircle
 10
0.0
 20
0.0
 30
0.0
 40
0.79000000001558
100
AcDbArc
 50
290.9480907539
 51
294.0518975881
  0
SPLINE
  5
127
330
1F
100
AcDbEntity
  8
0
  6
Continuous
 62
     7
370
    25
100
AcDbSpline
210
0.0
220
0.0
230
1.0
 70
     8
 71
     2
 72
     6
 73
     3
 74
     0
 42
0.00000001
 43
0.00000001
 40
0.4999316233476384
 40
0.4999316233476384
 40
0.4999316233476384
 40
0.5001583889583704
 40
0.5001583889583704
 40
0.5001583889583704
 10
0.321975520637214
 20
-0.7214095662458058
 30
0.0
 10
0.3205786208888355
 20
-0.6882726874683361
 30
0.0
 10
0.3111379215724873
 20
-0.6560716320390527
 30
0.0
  0
LINE
  5
128
330
1F
100
AcDbEntity
  8
0
  6
Continuous
 62
     7
370
    25
100
AcDbLine
 10
0.3111379216
 20
-0.656071632
 30
0.0
 11
0.3049530252
 21
-0.6428080719
 31
0.0
  0
ARC
  5
129
330
1F
100
AcDbEntity
  8
0
  6
Continuous
 62
     7
370
    25
100
AcDbCircle
 10
0.3138507028
 20
-0.6386590189
 30
0.0
 40
0.0098175
100
AcDbArc
 50
116.1704889521
 51
204.9999883078
  0
ARC
  5
12A
330
1F
100
AcDbEntity
  8
0
  6
Continuous
 62
     7
370
    25
100
AcDbCircle
 10
0.0
 20
0.0
 30
0.0
 40
0.7017916666666667
100
AcDbArc
 50
296.1704889521
 51
298.8294993558
  0
ARC
  5
12B
330
1F
100
AcDbEntity
  8
0
  6
Continuous
 62
     7
370
    25
100
AcDbCircle
 10
0.3431413461
 20
-0.6234112789
 30
0.0
 40
0.0098175000000001
100
AcDbArc
 50
30.0
 51
118.8294993558
  0
LINE
  5
12C
330
1F
100
AcDbEntity
  8
0
  6
Continuous
 62
     7
370
    25
100
AcDbLine
 10
0.3516435505
 20
-0.6185025289
 30
0.0
 11
0.3589609103
 21
-0.6311765674
 31
0.0
  0
SPLINE
  5
12D
330
1F
100
AcDbEntity
  8
0
  6
Continuous
 62
     7
370
    25
100
AcDbSpline
210
0.0
220
0.0
230
1.0
 70
     8
 71
     2
 72
     6
 73
     3
 74
     0
 42
0.00000001
 43
0.00000001
 40
0.4998416110459281
 40
0.4998416110459281
 40
0.4998416110459281
 40
0.5000683766567947
 40
0.5000683766567947
 40
0.5000683766567947
 10
0.3589609102830458
 20
-0.6311765674427543
 30
0.0
 10
0.3799235027632016
 20
-0.6573797063859889
 30
0.0
 10
0.4062664119845034
 20
-0.6775305177811358
 30
0.0
  0
ARC
  5
12E
330
1F
100
AcDbEntity
  8
0
  6
Continuous
 62
     7
370
    25
100
AcDbCircle
 10
0.0
 20
0.0
 30
0.0
 40
0.7900000000150085
100
AcDbArc
 50
300.948090754
 51
304.0518975884
  0
SPLINE
  5
12F
330
1F
100
AcDbEntity
  8
0
  6
Continuous
 62
     7
370
    25
100
AcDbSpline
210
0.0
220
0.0
230
1.0
 70
     8
 71
     2
 72
     6
 73
     3
 74
     0
 42
0.00000001
 43
0.00000001
 40
0.4999316233476082
 40
0.4999316233476082
 40
0.4999316233476082
 40
0.5001583889583392
 40
0.5001583889583392
 40
0.5001583889583392
 10
0.4423554455375639
 20
-0.6545392715226538
 30
0.0
 10
0.4352256092229618
 20
-0.6221483854874803
 30
0.0
 10
0.4203366807492461
 20
-0.592075896677526
 30
0.0
  0
LINE
  5
130
330
1F
100
AcDbEntity
  8
0
  6
Continuous
 62
     7
370
    25
100
AcDbLine
 10
0.4203366807
 20
-0.5920758967
 30
0.0
 11
0.4119425538
 21
-0.5800878358
 31
0.0
  0
ARC
  5
131
330
1F
100
AcDbEntity
  8
0
  6
Continuous
 62
     7
370
    25
100
AcDbCircle
 10
0.4199845801
 20
-0.5744567508
 30
0.0
 40
0.0098175000000001
100
AcDbArc
 50
126.1704889521
 51
214.9999883078
  0
ARC
  5
132
330
1F
100
AcDbEntity
  8
0
  6
Continuous
 62
     7
370
    25
100
AcDbCircle
 10
0.0
 20
0.0
 30
0.0
 40
0.7017916666666666
100
AcDbArc
 50
306.1704889521
 51
308.8294993558
  0
ARC
  5
133
330
1F
100
AcDbEntity
  8
0
  6
Continuous
 62
     7
370
    25
100
AcDbCircle
 10
0.4461824906
 20
-0.5543543913
 30
0.0
 40
0.0098175000000001
100
AcDbArc
 50
40.0
 51
128.8294993558
  0
LINE
  5
134
330
1F
100
AcDbEntity
  8
0
  6
Continuous
 62
     7
370
    25
100
AcDbLine
 10
0.4537031319
 20
-0.548043824
 30
0.0
 11
0.4631101482
 21
-0.5592546692
 31
0.0
  0
SPLINE
  5
135
330
1F
100
AcDbEntity
  8
0
  6
Continuous
 62
     7
370
    25
100
AcDbSpline
210
0.0
220
0.0
230
1.0
 70
     8
 71
     2
 72
     6
 73
     3
 74
     0
 42
0.00000001
 43
0.00000001
 40
0.4998416110458072
 40
0.4998416110458072
 40
0.4998416110458072
 40
0.5000683766566641
 40
0.5000683766566641
 40
0.5000683766566641
 10
0.4631101482042365
 20
-0.559254669203191
 30
0.0
 10
0.4883043991245993
 20
-0.5814196076067258
 30
0.0
 10
0.5177462520355736
 20
-0.5966898847203511
 30
0.0
  0
ARC
  5
136
330
1F
100
AcDbEntity
  8
0
  6
Continuous
 62
     7
370
    25
100
AcDbCircle
 10
0.0
 20
0.0
 30
0.0
 40
0.7900000000157912
100
AcDbArc
 50
310.9480907534
 51
314.0518975887
  0
SPLINE
  5
137
330
1F
100
AcDbEntity
  8
0
  6
Continuous
 62
     7
370
    25
100
AcDbSpline
210
0.0
220
0.0
230
1.0
 70
     8
 71
     2
 72
     6
 73
     3
 74
     0
 42
0.00000001
 43
0.00000001
 40
0.4999316233476567
 40
0.4999316233476567
 40
0.4999316233476567
 40
0.5001583889583957
 40
0.5001583889583957
 40
0.5001583889583957
 10
0.5492946240686754
 20
-0.5677811322469221
 30
0.0
 10
0.5366484876532374
 20
-0.5371204196351572
 30
0.0
 10
0.5167637225759251
 20
-0.5100902347993861
 30
0.0
  0
LINE
  5
138
330
1F
100
AcDbEntity
  8
0
  6
Continuous
 62
     7
370
    25
100
AcDbLine
 10
0.5167637226
 20
-0.5100902348
 30
0.0
 11
0.5064154164
 21
-0.4997419244
 31
0.0
  0
ARC
  5
139
330
1F
100
AcDbEntity
  8
0
  6
Continuous
 62
     7
370
    25
100
AcDbCircle
 10
0.5133574386
 20
-0.492799905
 30
0.0
 40
0.0098175
100
AcDbArc
 50
136.1704889521
 51
224.9999883078
  0
ARC
  5
13A
330
1F
100
AcDbEntity
  8
0
  6
Continuous
 62
     7
370
    25
100
AcDbCircle
 10
0.0
 20
0.0
 30
0.0
 40
0.7017916666666665
100
AcDbArc
 50
316.1704889521
 51
318.8294993558
  0
ARC
  5
13B
330
1F
100
AcDbEntity
  8
0
  6
Continuous
 62
     7
370
    25
100
AcDbCircle
 10
0.5356666058
 20
-0.4684537261
 30
0.0
 40
0.0098175000000002
100
AcDbArc
 50
50.0
 51
138.8294993558
  0
LINE
  5
13C
330
1F
100
AcDbEntity
  8
0
  6
Continuous
 62
     7
370
    25
100
AcDbLine
 10
0.5419771732
 20
-0.4609330848
 30
0.0
 11
0.5531880186
 21
-0.4703401008
 31
0.0
  0
SPLINE
  5
13D
330
1F
100
AcDbEntity
  8
0
  6
Continuous
 62
     7
370
    25
100
AcDbSpline
210
0.0
220
0.0
230
1.0
 70
     8
 71
     2
 72
     6
 73
     3
 74
     0
 42
0.00000001
 43
0.00000001
 40
0.4998416110459366
 40
0.4998416110459366
 40
0.4998416110459366
 40
0.5000683766567913
 40
0.5000683766567913
 40
0.5000683766567913
 10
0.5531880186086136
 20
-0.4703401008474716
 30
0.0
 10
0.5818484134106381
 20
-0.4877933682682482
 30
0.0
 10
0.6134946342160448
 20
-0.4977191314513519
 30
0.0
  0
ARC
  5
13E
330
1F
100
AcDbEntity
  8
0
  6
Continuous
 62
     7
370
    25
100
AcDbCircle
 10
0.0
 20
0.0
 30
0.0
 40
0.7900000000148908
100
AcDbArc
 50
320.948090754
 51
324.0518975881
  0
SPLINE
  5
13F
330
1F
100
AcDbEntity
  8
0
  6
Continuous
 62
     7
370
    25
100
AcDbSpline
210
0.0
220
0.0
230
1.0
 70
     8
 71
     2
 72
     6
 73
     3
 74
     0
 42
0.00000001
 43
0.00000001
 40
0.4999316233475509
 40
0.4999316233475509
 40
0.4999316233475509
 40
0.5001583889582911
 40
0.5001583889582911
 40
0.5001583889582911
 10
0.6395437633929779
 20
-0.4637712505847878
 30
0.0
 10
0.6217655733377037
 20
-0.4357723216329998
 30
0.0
 10
0.5974891601872395
 20
-0.4126057392585307
 30
0.0
  0
LINE
  5
140
330
1F
100
AcDbEntity
  8
0
  6
Continuous
 62
     7
370
    25
100
AcDbLine
 10
0.5974891602
 20
-0.4126057393
 30
0.0
 11
0.5855011027
 21
-0.4042116074
 31
0.0
  0
ARC
  5
141
330
1F
100
AcDbEntity
  8
0
  6
Continuous
 62
     7
370
    25
100
AcDbCircle
 10
0.591132191
 20
-0.3961695834
 30
0.0
 40
0.0098174999999999
100
AcDbArc
 50
146.1704889521
 51
234.9999883078
  0
ARC
  5
142
330
1F
100
AcDbEntity
  8
0
  6
Continuous
 62
     7
370
    25
100
AcDbCircle
 10
0.0
 20
0.0
 30
0.0
 40
0.7017916666666666
100
AcDbArc
 50
326.1704889521
 51
328.8294993558
  0
ARC
  5
143
330
1F
100
AcDbEntity
  8
0
  6
Continuous
 62
     7
370
    25
100
AcDbCircle
 10
0.6088747623
 20
-0.3683193315
 30
0.0
 40
0.0098175
100
AcDbArc
 50
60.0
 51
148.8294993558
  0
LINE
  5
144
330
1F
100
AcDbEntity
  8
0
  6
Continuous
 62
     7
370
    25
100
AcDbLine
 10
0.6137835123
 20
-0.3598171271
 30
0.0
 11
0.626457551
 21
-0.3671344865
 31
0.0
  0
SPLINE
  5
145
330
1F
100
AcDbEntity
  8
0
  6
Continuous
 62
     7
370
    25
100
AcDbSpline
210
0.0
220
0.0
230
1.0
 70
     8
 71
     2
 72
     6
 73
     3
 74
     0
 42
0.00000001
 43
0.00000001
 40
0.4998416110458049
 40
0.4998416110458049
 40
0.4998416110458049
 40
0.5000683766566676
 40
0.5000683766566676
 40
0.5000683766566676
 10
0.6264575509932456
 20
-0.3671344865329267
 30
0.0
 10
0.6577132580797046
 20
-0.3793457742805306
 30
0.0
 10
0.6906022923703021
 20
-0.3836254342491688
 30
0.0
  0
ARC
  5
146
330
1F
100
AcDbEntity
  8
0
  6
Continuous
 62
     7
370
    25
100
AcDbCircle
 10
0.0
 20
0.0
 30
0.0
 40
0.7900000000163018
100
AcDbArc
 50
330.9480907534
 51
334.0518975889
  0
SPLINE
  5
147
330
1F
100
AcDbEntity
  8
0
  6
Continuous
 62
     7
370
    25
100
AcDbSpline
210
0.0
220
0.0
230
1.0
 70
     8
 71
     2
 72
     6
 73
     3
 74
     0
 42
0.00000001
 43
0.00000001
 40
0.4999316233476185
 40
0.4999316233476185
 40
0.4999316233476185
 40
0.5001583889583672
 40
0.5001583889583672
 40
0.5001583889583672
 10
0.7103606891064561
 20
-0.3456699141401091
 30
0.0
 10
0.6879906267133894
 20
-0.321183502138021
 30
0.0
 10
0.6600601920119697
 20
-0.3025844271095098
 30
0.0
  0
LINE
  5
148
330
1F
100
AcDbEntity
  8
0
  6
Continuous
 62
     7
370
    25
100
AcDbLine
 10
0.660060192
 20
-0.3025844271
 30
0.0
 11
0.6467966344
 21
-0.2963995253
 31
0.0
  0
ARC
  5
149
330
1F
100
AcDbEntity
  8
0
  6
Continuous
 62
     7
370
    25
100
AcDbCircle
 10
0.650945691
 20
-0.2875018495
 30
0.0
 40
0.0098175000000001
100
AcDbArc
 50
156.1704889521
 51
244.9999883078
  0
ARC
  5
14A
330
1F
100
AcDbEntity
  8
0
  6
Continuous
 62
     7
370
    25
100
AcDbCircle
 10
0.0
 20
0.0
 30
0.0
 40
0.7017916666666666
100
AcDbArc
 50
336.1704889521
 51
338.8294993558
  0
ARC
  5
14B
330
1F
100
AcDbEntity
  8
0
  6
Continuous
 62
     7
370
    25
100
AcDbCircle
 10
0.6635825672
 20
-0.2569937403
 30
0.0
 40
0.0098175000000001
100
AcDbArc
 50
70.0
 51
158.8294993558
  0
LINE
  5
14C
330
1F
100
AcDbEntity
  8
0
  6
Continuous
 62
     7
370
    25
100
AcDbLine
 10
0.66694035
 20
-0.247768308
 30
0.0
 11
0.6806924877
 21
-0.2527736766
 31
0.0
  0
SPLINE
  5
14D
330
1F
100
AcDbEntity
  8
0
  6
Continuous
 62
     7
370
    25
100
AcDbSpline
210
0.0
220
0.0
230
1.0
 70
     8
 71
     2
 72
     6
 73
     3
 74
     0
 42
0.00000001
 43
0.00000001
 40
0.4998416110458466
 40
0.4998416110458466
 40
0.4998416110458466
 40
0.5000683766567039
 40
0.5000683766567039
 40
0.5000683766567039
 10
0.6806924876975239
 20
-0.2527736766139297
 30
0.0
 10
0.7135938182260445
 20
-0.2593719508831431
 30
0.0
 10
0.7467263493386458
 20
-0.2578754723294722
 30
0.0
  0
ARC
  5
14E
330
1F
100
AcDbEntity
  8
0
  6
Continuous
 62
     7
370
    25
100
AcDbCircle
 10
0.0
 20
0.0
 30
0.0
 40
0.7900000000158429
100
AcDbArc
 50
340.9480907536
 51
344.0518975882
  0
SPLINE
  5
14F
330
1F
100
AcDbEntity
  8
0
  6
Continuous
 62
     7
370
    25
100
AcDbSpline
210
0.0
220
0.0
230
1.0
 70
     8
 71
     2
 72
     6
 73
     3
 74
     0
 42
0.00000001
 43
0.00000001
 40
0.4999316233475954
 40
0.4999316233475954
 40
0.4999316233475954
 40
0.5001583889583351
 40
0.5001583889583351
 40
0.5001583889583351
 10
0.7595936647254075
 20
-0.2170655722864484
 30
0.0
 10
0.7333114330253703
 20
-0.1968356844724972
 30
0.0
 10
0.7025756289035562
 20
-0.1833692402726818
 30
0.0
  0
LINE
  5
150
330
1F
100
AcDbEntity
  8
0
  6
Continuous
 62
     7
370
    25
100
AcDbLine
 10
0.7025756289
 20
-0.1833692403
 30
0.0
 11
0.6884395776
 21
-0.1795814937
 31
0.0
  0
ARC
  5
151
330
1F
100
AcDbEntity
  8
0
  6
Continuous
 62
     7
370
    25
100
AcDbCircle
 10
0.6909805355
 20
-0.1700985174
 30
0.0
 40
0.0098174999999999
100
AcDbArc
 50
166.1704889521
 51
254.9999883078
  0
ARC
  5
152
330
1F
100
AcDbEntity
  8
0
  6
Continuous
 62
     7
370
    25
100
AcDbCircle
 10
0.0
 20
0.0
 30
0.0
 40
0.7017916666666667
100
AcDbArc
 50
346.1704889521
 51
348.8294993558
  0
ARC
  5
153
330
1F
100
AcDbEntity
  8
0
  6
Continuous
 62
     7
370
    25
100
AcDbCircle
 10
0.6981277516
 20
-0.1378595244
 30
0.0
 40
0.0098175000000001
100
AcDbArc
 50
80.0
 51
168.8294993558
  0
LINE
  5
154
330
1F
100
AcDbEntity
  8
0
  6
Continuous
 62
     7
370
    25
100
AcDbLine
 10
0.6998325426
 20
-0.1281911743
 30
0.0
 11
0.7142449276
 21
-0.1307324665
 31
0.0
  0
SPLINE
  5
155
330
1F
100
AcDbEntity
  8
0
  6
Continuous
 62
     7
370
    25
100
AcDbSpline
210
0.0
220
0.0
230
1.0
 70
     8
 71
     2
 72
     6
 73
     3
 74
     0
 42
0.00000001
 43
0.00000001
 40
0.4998416110458234
 40
0.4998416110458234
 40
0.4998416110458234
 40
0.5000683766566865
 40
0.5000683766566865
 40
0.5000683766566865
 10
0.7142449276080957
 20
-0.1307324664533644
 30
0.0
 10
0.7477921913004384
 20
-0.1315172420219466
 30
0.0
 10
0.7801615040440673
 20
-0.1242900946913298
 30
0.0
  0
ARC
  5
156
330
1F
100
AcDbEntity
  8
0
  6
Continuous
 62
     7
370
    25
100
AcDbCircle
 10
0.0
 20
0.0
 30
0.0
 40
0.7900000000163416
100
AcDbArc
 50
350.9480907535
 51
354.0518975887
  0
SPLINE
  5
157
330
1F
100
AcDbEntity
  8
0
  6
Continuous
 62
     7
370
    25
100
AcDbSpline
210
0.0
220
0.0
230
1.0
 70
     8
 71
     2
 72
     6
 73
     3
 74
     0
 42
0.00000001
 43
0.00000001
 40
0.4999316233476486
 40
0.4999316233476486
 40
0.4999316233476486
 40
0.5001583889583867
 40
0.5001583889583867
 40
0.5001583889583867
 10
0.7857467712239632
 20
-0.0818658028470057
 30
0.0
 10
0.756350942525547
 20
-0.066507114126879
 30
0.0
 10
0.7237436608359568
 20
-0.0585824718500578
 30
0.0
  0
LINE
  5
158
330
1F
100
AcDbEntity
  8
0
  6
Continuous
 62
     7
370
    25
100
AcDbLine
 10
0.7237436608
 20
-0.0585824719
 30
0.0
 11
0.7091646326
 21
-0.0573069692
 31
0.0
  0
ARC
  5
159
330
1F
100
AcDbEntity
  8
0
  6
Continuous
 62
     7
370
    25
100
AcDbCircle
 10
0.7100202861
 20
-0.0475268279
 30
0.0
 40
0.0098175000000001
100
AcDbArc
 50
176.1704889521
 51
264.9999883078
  0
ARC
  5
15A
330
1F
100
AcDbEntity
  8
0
  6
Continuous
 62
     7
370
    25
100
AcDbCircle
 10
0.0
 20
0.0
 30
0.0
 40
0.7017916666666665
100
AcDbArc
 50
356.1704889521
 51
358.8294993558
  0
ARC
  5
15B
330
1F
100
AcDbEntity
  8
0
  6
Continuous
 62
     7
370
    25
100
AcDbCircle
 10
0.7114606776
 20
-0.0145365166
 30
0.0
 40
0.0098175000000001
100
AcDbArc
 50
90.0
 51
178.8294993558
  0
LINE
  5
15C
330
1F
100
AcDbEntity
  8
0
  6
Continuous
 62
     7
370
    25
100
AcDbLine
 10
0.7114606776
 20
-0.0047190166
 30
0.0
 11
0.7260953968
 21
-0.0047190164
 31
0.0
  0
SPLINE
  5
15D
330
1F
100
AcDbEntity
  8
0
  6
Continuous
 62
     7
370
    25
100
AcDbSpline
210
0.0
220
0.0
230
1.0
 70
     8
 71
     2
 72
     6
 73
     3
 74
     0
 42
0.00000001
 43
0.00000001
 40
0.4998416110459119
 40
0.4998416110459119
 40
0.4998416110459119
 40
0.5000683766567747
 40
0.5000683766567747
 40
0.5000683766567747
 10
0.7260953968180095
 20
-0.0047190164414586
 30
0.0
 10
0.7592692770414045
 20
0.000333551703271
 30
0.0
 10
0.7898918462267894
 20
0.0130717746000277
 30
0.0
  0
ARC
  5
15E
330
1F
100
AcDbEntity
  8
0
  6
Continuous
 62
     7
370
    25
100
AcDbCircle
 10
0.0
 20
0.0
 30
0.0
 40
0.7900000000152281
100
AcDbArc
 50
0.948090754
 51
4.0518975883
  0
SPLINE
  5
15F
330
1F
100
AcDbEntity
  8
0
  6
Continuous
 62
     7
370
    25
100
AcDbSpline
210
0.0
220
0.0
230
1.0
 70
     8
 71
     2
 72
     6
 73
     3
 74
     0
 42
0.00000001
 43
0.00000001
 40
0.4999316233476674
 40
0.4999316233476674
 40
0.4999316233476674
 40
0.500158388958399
 40
0.500158388958399
 40
0.500158388958399
 10
0.7880253596821499
 20
0.0558214175756133
 30
0.0
 10
0.7564091113667997
 20
0.0658422412178846
 30
0.0
 10
0.7229211078649848
 20
0.0679842953274029
 30
0.0
  0
LINE
  5
160
330
1F
100
AcDbEntity
  8
0
  6
Continuous
 62
     7
370
    25
100
AcDbLine
 10
0.7229211079
 20
0.0679842953
 30
0.0
 11
0.7083420791
 21
0.0667087986
 31
0.0
  0
ARC
  5
161
330
1F
100
AcDbEntity
  8
0
  6
Continuous
 62
     7
370
    25
100
AcDbCircle
 10
0.7074864296
 20
0.0764889402
 30
0.0
 40
0.0098175
100
AcDbArc
 50
186.1704889521
 51
274.9999883078
  0
ARC
  5
162
330
1F
100
AcDbEntity
  8
0
  6
Continuous
 62
     7
370
    25
100
AcDbCircle
 10
0.0
 20
0.0
 30
0.0
 40
0.7017916666666667
100
AcDbArc
 50
6.1704889521
 51
8.8294993558
  0
ARC
  5
163
330
1F
100
AcDbEntity
  8
0
  6
Continuous
 62
     7
370
    25
100
AcDbCircle
 10
0.7031762309
 20
0.1092281759
 30
0.0
 40
0.0098175
100
AcDbArc
 50
100.0
 51
188.8294993558
  0
LINE
  5
164
330
1F
100
AcDbEntity
  8
0
  6
Continuous
 62
     7
370
    25
100
AcDbLine
 10
0.7014714399
 20
0.118896526
 30
0.0
 11
0.7158838248
 21
0.1214378185
 31
0.0
  0
SPLINE
  5
165
330
1F
100
AcDbEntity
  8
0
  6
Continuous
 62
     7
370
    25
100
AcDbSpline
210
0.0
220
0.0
230
1.0
 70
     8
 71
     2
 72
     6
 73
     3
 74
     0
 42
0.00000001
 43
0.00000001
 40
0.4998416110458586
 40
0.4998416110458586
 40
0.4998416110458586
 40
0.5000683766567218
 40
0.5000683766567218
 40
0.5000683766567218
 10
0.7158838248186546
 20
0.1214378184896954
 30
0.0
 10
0.7476763500098519
 20
0.132174210616315
 30
0.0
 10
0.7756217243685909
 20
0.1500364646173184
 30
0.0
  0
ARC
  5
166
330
1F
100
AcDbEntity
  8
0
  6
Continuous
 62
     7
370
    25
100
AcDbCircle
 10
0.0
 20
0.0
 30
0.0
 40
0.790000000015458
100
AcDbArc
 50
10.9480907537
 51
14.0518975885
  0
SPLINE
  5
167
330
1F
100
AcDbEntity
  8
0
  6
Continuous
 62
     7
370
    25
100
AcDbSpline
210
0.0
220
0.0
230
1.0
 70
     8
 71
     2
 72
     6
 73
     3
 74
     0
 42
0.00000001
 43
0.00000001
 40
0.4999316233476304
 40
0.4999316233476304
 40
0.4999316233476304
 40
0.5001583889583666
 40
0.5001583889583666
 40
0.5001583889583666
 10
0.7663601963489083
 20
0.1918125324794094
 30
0.0
 10
0.7334841721219019
 20
0.1961910133906718
 30
0.0
 10
0.7001329628471256
 20
0.19248539410439
 30
0.0
  0
LINE
  5
168
330
1F
100
AcDbEntity
  8
0
  6
Continuous
 62
     7
370
    25
100
AcDbLine
 10
0.7001329628
 20
0.1924853941
 30
0.0
 11
0.68599691
 21
0.1886976533
 31
0.0
  0
ARC
  5
169
330
1F
100
AcDbEntity
  8
0
  6
Continuous
 62
     7
370
    25
100
AcDbCircle
 10
0.683455956
 20
0.1981806306
 30
0.0
 40
0.0098175000000002
100
AcDbArc
 50
196.1704889521
 51
284.9999883078
  0
ARC
  5
16A
330
1F
100
AcDbEntity
  8
0
  6
Continuous
 62
     7
370
    25
100
AcDbCircle
 10
0.0
 20
0.0
 30
0.0
 40
0.7017916666666666
100
AcDbArc
 50
16.1704889521
 51
18.8294993558
  0
ARC
  5
16B
330
1F
100
AcDbEntity
  8
0
  6
Continuous
 62
     7
370
    25
100
AcDbCircle
 10
0.6735261302
 20
0.2296740255
 30
0.0
 40
0.0098175
100
AcDbArc
 50
110.0
 51
198.8294993558
  0
LINE
  5
16C
330
1F
100
AcDbEntity
  8
0
  6
Continuous
 62
     7
370
    25
100
AcDbLine
 10
0.6701683475
 20
0.2388994578
 30
0.0
 11
0.6839204851
 21
0.2439048268
 31
0.0
  0
SPLINE
  5
16D
330
1F
100
AcDbEntity
  8
0
  6
Continuous
 62
     7
370
    25
100
AcDbSpline
210
0.0
220
0.0
230
1.0
 70
     8
 71
     2
 72
     6
 73
     3
 74
     0
 42
0.00000001
 43
0.00000001
 40
0.4998416110459045
 40
0.4998416110459045
 40
0.4998416110459045
 40
0.5000683766567644
 40
0.5000683766567644
 40
0.5000683766567644
 10
0.6839204850606904
 20
0.2439048267534557
 30
0.0
 10
0.7133656554283919
 20
0.2599988230234801
 30
0.0
 10
0.737784728900636
 20
0.2824423725828391
 30
0.0
  0
ARC
  5
16E
330
1F
100
AcDbEntity
  8
0
  6
Continuous
 62
     7
370
    25
100
AcDbCircle
 10
0.0
 20
0.0
 30
0.0
 40
0.7900000000146217
100
AcDbArc
 50
20.9480907538
 51
24.0518975885
  0
SPLINE
  5
16F
330
1F
100
AcDbEntity
  8
0
  6
Continuous
 62
     7
370
    25
100
AcDbSpline
210
0.0
220
0.0
230
1.0
 70
     8
 71
     2
 72
     6
 73
     3
 74
     0
 42
0.00000001
 43
0.00000001
 40
0.4999316233476573
 40
0.4999316233476573
 40
0.4999316233476573
 40
0.5001583889583924
 40
0.5001583889583924
 40
0.5001583889583924
 10
0.7214095662455392
 20
0.3219755206428956
 30
0.0
 10
0.6882726874676657
 20
0.3205786208938218
 30
0.0
 10
0.6560716320380036
 20
0.3111379215765618
 30
0.0
  0
LINE
  5
170
330
1F
100
AcDbEntity
  8
0
  6
Continuous
 62
     7
370
    25
100
AcDbLine
 10
0.656071632
 20
0.3111379216
 30
0.0
 11
0.6428080719
 21
0.3049530252
 31
0.0
  0
ARC
  5
171
330
1F
100
AcDbEntity
  8
0
  6
Continuous
 62
     7
370
    25
100
AcDbCircle
 10
0.6386590189
 20
0.3138507028
 30
0.0
 40
0.0098174999999999
100
AcDbArc
 50
206.1704889521
 51
294.9999883078
  0
ARC
  5
172
330
1F
100
AcDbEntity
  8
0
  6
Continuous
 62
     7
370
    25
100
AcDbCircle
 10
0.0
 20
0.0
 30
0.0
 40
0.7017916666666667
100
AcDbArc
 50
26.1704889521
 51
28.8294993558
  0
ARC
  5
173
330
1F
100
AcDbEntity
  8
0
  6
Continuous
 62
     7
370
    25
100
AcDbCircle
 10
0.6234112789
 20
0.3431413461
 30
0.0
 40
0.0098175
100
AcDbArc
 50
120.0
 51
208.8294993558
  0
LINE
  5
174
330
1F
100
AcDbEntity
  8
0
  6
Continuous
 62
     7
370
    25
100
AcDbLine
 10
0.6185025289
 20
0.3516435505
 30
0.0
 11
0.6311765674
 21
0.3589609103
 31
0.0
  0
SPLINE
  5
175
330
1F
100
AcDbEntity
  8
0
  6
Continuous
 62
     7
370
    25
100
AcDbSpline
210
0.0
220
0.0
230
1.0
 70
     8
 71
     2
 72
     6
 73
     3
 74
     0
 42
0.00000001
 43
0.00000001
 40
0.49984161104582
 40
0.49984161104582
 40
0.49984161104582
 40
0.5000683766566871
 40
0.5000683766566871
 40
0.5000683766566871
 10
0.631176567439922
 20
0.3589609102865819
 30
0.0
 10
0.6573797063854038
 20
0.3799235027634356
 30
0.0
 10
0.6775305177827682
 20
0.4062664119814615
 30
0.0
  0
ARC
  5
176
330
1F
100
AcDbEntity
  8
0
  6
Continuous
 62
     7
370
    25
100
AcDbCircle
 10
0.0
 20
0.0
 30
0.0
 40
0.790000000016967
100
AcDbArc
 50
30.9480907534
 51
34.0518975884
  0
SPLINE
  5
177
330
1F
100
AcDbEntity
  8
0
  6
Continuous
 62
     7
370
    25
100
AcDbSpline
210
0.0
220
0.0
230
1.0
 70
     8
 71
     2
 72
     6
 73
     3
 74
     0
 42
0.00000001
 43
0.00000001
 40
0.4999316233476003
 40
0.4999316233476003
 40
0.4999316233476003
 40
0.5001583889583416
 40
0.5001583889583416
 40
0.5001583889583416
 10
0.6545392715237247
 20
0.4423554455377082
 30
0.0
 10
0.6221483854872564
 20
0.4352256092231299
 30
0.0
 10
0.5920758966762195
 20
0.4203366807487275
 30
0.0
  0
LINE
  5
178
330
1F
100
AcDbEntity
  8
0
  6
Continuous
 62
     7
370
    25
100
AcDbLine
 10
0.5920758967
 20
0.4203366808
 30
0.0
 11
0.5800878358
 21
0.4119425538
 31
0.0
  0
ARC
  5
179
330
1F
100
AcDbEntity
  8
0
  6
Continuous
 62
     7
370
    25
100
AcDbCircle
 10
0.5744567508
 20
0.4199845801
 30
0.0
 40
0.0098175
100
AcDbArc
 50
216.1704889521
 51
304.9999883078
  0
ARC
  5
17A
330
1F
100
AcDbEntity
  8
0
  6
Continuous
 62
     7
370
    25
100
AcDbCircle
 10
0.0
 20
0.0
 30
0.0
 40
0.7017916666666667
100
AcDbArc
 50
36.1704889521
 51
38.8294993558
  0
ARC
  5
17B
330
1F
100
AcDbEntity
  8
0
  6
Continuous
 62
     7
370
    25
100
AcDbCircle
 10
0.5543543913
 20
0.4461824906
 30
0.0
 40
0.0098175000000001
100
AcDbArc
 50
130.0
 51
218.8294993558
  0
LINE
  5
17C
330
1F
100
AcDbEntity
  8
0
  6
Continuous
 62
     7
370
    25
100
AcDbLine
 10
0.548043824
 20
0.4537031319
 30
0.0
 11
0.5592546692
 21
0.4631101482
 31
0.0
  0
SPLINE
  5
17D
330
1F
100
AcDbEntity
  8
0
  6
Continuous
 62
     7
370
    25
100
AcDbSpline
210
0.0
220
0.0
230
1.0
 70
     8
 71
     2
 72
     6
 73
     3
 74
     0
 42
0.00000001
 43
0.00000001
 40
0.4998416110458516
 40
0.4998416110458516
 40
0.4998416110458516
 40
0.5000683766567068
 40
0.5000683766567068
 40
0.5000683766567068
 10
0.5592546692104206
 20
0.4631101481991705
 30
0.0
 10
0.5814196076128454
 20
0.4883043991208281
 30
0.0
 10
0.5966898847254651
 20
0.5177462520330326
 30
0.0
  0
ARC
  5
17E
330
1F
100
AcDbEntity
  8
0
  6
Continuous
 62
     7
370
    25
100
AcDbCircle
 10
0.0
 20
0.0
 30
0.0
 40
0.7900000000149489
100
AcDbArc
 50
40.9480907537
 51
44.0518975886
  0
SPLINE
  5
17F
330
1F
100
AcDbEntity
  8
0
  6
Continuous
 62
     7
370
    25
100
AcDbSpline
210
0.0
220
0.0
230
1.0
 70
     8
 71
     2
 72
     6
 73
     3
 74
     0
 42
0.00000001
 43
0.00000001
 40
0.4999316233476969
 40
0.4999316233476969
 40
0.4999316233476969
 40
0.5001583889584293
 40
0.5001583889584293
 40
0.5001583889584293
 10
0.5677811322461964
 20
0.5492946240667522
 30
0.0
 10
0.5371204196364061
 20
0.5366484876506189
 30
0.0
 10
0.5100902348023999
 20
0.5167637225730295
 30
0.0
  0
LINE
  5
180
330
1F
100
AcDbEntity
  8
0
  6
Continuous
 62
     7
370
    25
100
AcDbLine
 10
0.5100902348
 20
0.5167637226
 30
0.0
 11
0.4997419244
 21
0.5064154164
 31
0.0
  0
ARC
  5
181
330
1F
100
AcDbEntity
  8
0
  6
Continuous
 62
     7
370
    25
100
AcDbCircle
 10
0.492799905
 20
0.5133574386
 30
0.0
 40
0.0098175
100
AcDbArc
 50
226.1704889521
 51
314.9999883078
  0
ARC
  5
182
330
1F
100
AcDbEntity
  8
0
  6
Continuous
 62
     7
370
    25
100
AcDbCircle
 10
0.0
 20
0.0
 30
0.0
 40
0.7017916666666668
100
AcDbArc
 50
46.1704889521
 51
48.8294993558
  0
ARC
  5
183
330
1F
100
AcDbEntity
  8
0
  6
Continuous
 62
     7
370
    25
100
AcDbCircle
 10
0.4684537261
 20
0.5356666058
 30
0.0
 40
0.0098175
100
AcDbArc
 50
140.0
 51
228.8294993558
  0
LINE
  5
184
330
1F
100
AcDbEntity
  8
0
  6
Continuous
 62
     7
370
    25
100
AcDbLine
 10
0.4609330848
 20
0.5419771732
 30
0.0
 11
0.4703401009
 21
0.5531880186
 31
0.0
  0
SPLINE
  5
185
330
1F
100
AcDbEntity
  8
0
  6
Continuous
 62
     7
370
    25
100
AcDbSpline
210
0.0
220
0.0
230
1.0
 70
     8
 71
     2
 72
     6
 73
     3
 74
     0
 42
0.00000001
 43
0.00000001
 40
0.499841611045892
 40
0.499841611045892
 40
0.499841611045892
 40
0.5000683766567517
 40
0.5000683766567517
 40
0.5000683766567517
 10
0.4703401008521967
 20
0.5531880186062139
 30
0.0
 10
0.4877933682745098
 20
0.5818484134074642
 30
0.0
 10
0.4977191314588184
 20
0.6134946342122283
 30
0.0
  0
ARC
  5
186
330
1F
100
AcDbEntity
  8
0
  6
Continuous
 62
     7
370
    25
100
AcDbCircle
 10
0.0
 20
0.0
 30
0.0
 40
0.790000000014844
100
AcDbArc
 50
50.9480907538
 51
54.0518975888
  0
SPLINE
  5
187
330
1F
100
AcDbEntity
  8
0
  6
Continuous
 62
     7
370
    25
100
AcDbSpline
210
0.0
220
0.0
230
1.0
 70
     8
 71
     2
 72
     6
 73
     3
 74
     0
 42
0.00000001
 43
0.00000001
 40
0.4999316233476931
 40
0.4999316233476931
 40
0.4999316233476931
 40
0.5001583889584232
 40
0.5001583889584232
 40
0.5001583889584232
 10
0.4637712505765092
 20
0.6395437633976943
 30
0.0
 10
0.435772321628588
 20
0.6217655733388346
 30
0.0
 10
0.4126057392575576
 20
0.5974891601853612
 30
0.0
  0
LINE
  5
188
330
1F
100
AcDbEntity
  8
0
  6
Continuous
 62
     7
370
    25
100
AcDbLine
 10
0.4126057393
 20
0.5974891602
 30
0.0
 11
0.4042116074
 21
0.5855011027
 31
0.0
  0
ARC
  5
189
330
1F
100
AcDbEntity
  8
0
  6
Continuous
 62
     7
370
    25
100
AcDbCircle
 10
0.3961695834
 20
0.591132191
 30
0.0
 40
0.0098175000000001
100
AcDbArc
 50
236.1704889521
 51
324.9999883078
  0
ARC
  5
18A
330
1F
100
AcDbEntity
  8
0
  6
Continuous
 62
     7
370
    25
100
AcDbCircle
 10
0.0
 20
0.0
 30
0.0
 40
0.7017916666666665
100
AcDbArc
 50
56.1704889521
 51
58.8294993558
  0
ARC
  5
18B
330
1F
100
AcDbEntity
  8
0
  6
Continuous
 62
     7
370
    25
100
AcDbCircle
 10
0.3683193315
 20
0.6088747623
 30
0.0
 40
0.0098175000000001
100
AcDbArc
 50
150.0
 51
238.8294993558
  0
LINE
  5
18C
330
1F
100
AcDbEntity
  8
0
  6
Continuous
 62
     7
370
    25
100
AcDbLine
 10
0.3598171271
 20
0.6137835123
 30
0.0
 11
0.3671344865
 21
0.626457551
 31
0.0
  0
SPLINE
  5
18D
330
1F
100
AcDbEntity
  8
0
  6
Continuous
 62
     7
370
    25
100
AcDbSpline
210
0.0
220
0.0
230
1.0
 70
     8
 71
     2
 72
     6
 73
     3
 74
     0
 42
0.00000001
 43
0.00000001
 40
0.4998416110458758
 40
0.4998416110458758
 40
0.4998416110458758
 40
0.5000683766567305
 40
0.5000683766567305
 40
0.5000683766567305
 10
0.3671344865272183
 20
0.6264575509959075
 30
0.0
 10
0.3793457742720105
 20
0.6577132580822402
 30
0.0
 10
0.3836254342383886
 20
0.6906022923725982
 30
0.0
  0
ARC
  5
18E
330
1F
100
AcDbEntity
  8
0
  6
Continuous
 62
     7
370
    25
100
AcDbCircle
 10
0.0
 20
0.0
 30
0.0
 40
0.7900000000153572
100
AcDbArc
 50
60.9480907537
 51
64.0518975887
  0
SPLINE
  5
18F
330
1F
100
AcDbEntity
  8
0
  6
Continuous
 62
     7
370
    25
100
AcDbSpline
210
0.0
220
0.0
230
1.0
 70
     8
 71
     2
 72
     6
 73
     3
 74
     0
 42
0.00000001
 43
0.00000001
 40
0.499931623347667
 40
0.499931623347667
 40
0.499931623347667
 40
0.5001583889583924
 40
0.5001583889583924
 40
0.5001583889583924
 10
0.3456699141423907
 20
0.7103606890998603
 30
0.0
 10
0.3211835021438795
 20
0.6879906267076975
 30
0.0
 10
0.3025844271177371
 20
0.6600601920083221
 30
0.0
  0
LINE
  5
190
330
1F
100
AcDbEntity
  8
0
  6
Continuous
 62
     7
370
    25
100
AcDbLine
 10
0.3025844271
 20
0.660060192
 30
0.0
 11
0.2963995253
 21
0.6467966344
 31
0.0
  0
ARC
  5
191
330
1F
100
AcDbEntity
  8
0
  6
Continuous
 62
     7
370
    25
100
AcDbCircle
 10
0.2875018495
 20
0.650945691
 30
0.0
 40
0.0098174999999999
100
AcDbArc
 50
246.1704889521
 51
334.9999883078
  0
ARC
  5
192
330
1F
100
AcDbEntity
  8
0
  6
Continuous
 62
     7
370
    25
100
AcDbCircle
 10
0.0
 20
0.0
 30
0.0
 40
0.7017916666666668
100
AcDbArc
 50
66.1704889521
 51
68.8294993558
  0
ARC
  5
193
330
1F
100
AcDbEntity
  8
0
  6
Continuous
 62
     7
370
    25
100
AcDbCircle
 10
0.2569937403
 20
0.6635825672
 30
0.0
 40
0.0098175000000001
100
AcDbArc
 50
160.0
 51
248.8294993558
  0
LINE
  5
194
330
1F
100
AcDbEntity
  8
0
  6
Continuous
 62
     7
370
    25
100
AcDbLine
 10
0.247768308
 20
0.66694035
 30
0.0
 11
0.2527736766
 21
0.6806924877
 31
0.0
  0
SPLINE
  5
195
330
1F
100
AcDbEntity
  8
0
  6
Continuous
 62
     7
370
    25
100
AcDbSpline
210
0.0
220
0.0
230
1.0
 70
     8
 71
     2
 72
     6
 73
     3
 74
     0
 42
0.00000001
 43
0.00000001
 40
0.4998416110458767
 40
0.4998416110458767
 40
0.4998416110458767
 40
0.5000683766548852
 40
0.5000683766548852
 40
0.5000683766548852
 10
0.2527736766200326
 20
0.680692487696794
 30
0.0
 10
0.2593719508343791
 20
0.7135938179572738
 30
0.0
 10
0.2578754723578328
 20
0.7467263487980643
 30
0.0
  0
ARC
  5
196
330
1F
100
AcDbEntity
  8
0
  6
Continuous
 62
     7
370
    25
100
AcDbCircle
 10
0.0
 20
0.0
 30
0.0
 40
0.7899999994326777
100
AcDbArc
 50
70.9480907538
 51
74.0518975882
  0
LINE
  5
197
330
1F
100
AcDbEntity
  8
0
  6
Continuous
 62
     7
370
    25
100
AcDbLine
 10
0.1835
 20
0.0585
 30
0.0
 11
0.0665
 21
0.0585
 31
0.0
  0
LINE
  5
198
330
1F
100
AcDbEntity
  8
0
  6
Continuous
 62
     7
370
    25
100
AcDbLine
 10
0.1835
 20
-0.0585
 30
0.0
 11
0.1835
 21
0.0585
 31
0.0
  0
LINE
  5
199
330
1F
100
AcDbEntity
  8
0
  6
Continuous
 62
     7
370
    25
100
AcDbLine
 10
0.0665
 20
-0.0585
 30
0.0
 11
0.1835
 21
-0.0585
 31
0.0
  0
LINE
  5
19A
330
1F
100
AcDbEntity
  8
0
  6
Continuous
 62
     7
370
    25
100
AcDbLine
 10
0.0665
 20
0.0585
 30
0.0
 11
0.0665
 21
-0.0585
 31
0.0
  0
MTEXT
  5
19C
330
1F
100
AcDbEntity
  8
0
  6
Continuous
 62
     7
100
AcDbMText
 10
-0.7898918462
 20
-0.8300322553
 30
0.0
 40
0.1903
 41
0.0
 71
     1
 72
     1
  1
SOLIDWORKS Educational Product.
  7
SLDTEXTSTYLE0
 73
     1
 44
1.0
  0
MTEXT
  5
19D
330
1F
100
AcDbEntity
  8
0
  6
Continuous
 62
     7
100
AcDbMText
 10
-0.7898918462
 20
-1.1154822553
 30
0.0
 40
0.1903
 41
0.0
 71
     1
 72
     1
  1
For Instructional Use Only.
  7
SLDTEXTSTYLE0
 73
     1
 44
1.0
  0
ENDSEC
  0
SECTION
  2
OBJECTS
  0
DICTIONARY
  5
C
330
0
100
AcDbDictionary
281
     1
  3
ACAD_GROUP
350
D
  3
ACAD_LAYOUT
350
1A
  3
ACAD_MLINESTYLE
350
17
  3
ACAD_PLOTSETTINGS
350
19
  3
ACAD_PLOTSTYLENAME
350
E
  3
ACAD_SCALELIST
350
47
  3
DWGPROPS
350
19E
  0
DICTIONARY
  5
D
102
{ACAD_REACTORS
330
C
102
}
330
C
100
AcDbDictionary
281
     1
  0
DICTIONARY
  5
1A
102
{ACAD_REACTORS
330
C
102
}
330
C
100
AcDbDictionary
281
     1
  3
Layout1
350
1E
  3
Layout2
350
26
  3
Model
350
22
  0
DICTIONARY
  5
17
102
{ACAD_REACTORS
330
C
102
}
330
C
100
AcDbDictionary
281
     1
  3
Standard
350
18
  0
DICTIONARY
  5
19
102
{ACAD_REACTORS
330
C
102
}
330
C
100
AcDbDictionary
281
     1
  0
ACDBDICTIONARYWDFLT
  5
E
102
{ACAD_REACTORS
330
C
102
}
330
C
100
AcDbDictionary
281
     1
  3
Normal
350
F
100
AcDbDictionaryWithDefault
340
F
  0
DICTIONARY
  5
47
102
{ACAD_REACTORS
330
C
102
}
330
C
100
AcDbDictionary
281
     1
  3
A0
350
48
  3
A1
350
49
  3
A2
350
4A
  3
A3
350
4B
  3
A4
350
4C
  3
A5
350
4D
  3
A6
350
4E
  3
A7
350
4F
  3
A8
350
50
  3
A9
350
51
  3
B0
350
52
  3
B1
350
53
  3
B2
350
54
  3
B3
350
55
  3
B4
350
56
  3
B5
350
57
  3
B6
350
58
  3
B7
350
59
  3
B8
350
5A
  3
B9
350
5B
  3
C0
350
5C
  3
C1
350
5D
  3
C2
350
5E
  3
C3
350
5F
  3
C4
350
60
  3
C5
350
61
  3
C6
350
62
  3
C7
350
63
  3
C8
350
64
  3
C9
350
65
  3
D0
350
66
  3
D1
350
67
  3
D2
350
68
  0
XRECORD
  5
19E
102
{ACAD_REACTORS
330
C
102
}
330
C
100
AcDbXrecord
280
     1
  1
DWGPROPS COOKIE
  2

  3

  4

  6

  7

  8
Spencer Hancock
  9

300
=
301
=
302
=
303
=
304
=
305
=
306
=
307
=
308
=
309
=
 40
0.0
 41
2459311.915879734
 42
2459311.915894213
  1

 90
        0
  0
LAYOUT
  5
1E
102
{ACAD_REACTORS
330
1A
102
}
330
1A
100
AcDbPlotSettings
  1

  2
none_device
  4

  6

 40
0.0
 41
0.0
 42
0.0
 43
0.0
 44
0.0
 45
0.0
 46
0.0
 47
0.0
 48
0.0
 49
0.0
140
0.0
141
0.0
142
1.0
143
1.0
 70
   688
 72
     0
 73
     0
 74
     5
  7

 75
    16
147
1.0
148
0.0
149
0.0
100
AcDbLayout
  1
Layout1
 70
     1
 71
     1
 10
0.0
 20
0.0
 11
12.0
 21
9.0
 12
0.0
 22
0.0
 32
0.0
 14
1.0000000000E+20
 24
1.0000000000E+20
 34
1.0000000000E+20
 15
-1.0000000000E+20
 25
-1.0000000000E+20
 35
-1.0000000000E+20
146
0.0
 13
0.0
 23
0.0
 33
0.0
 16
1.0
 26
0.0
 36
0.0
 17
0.0
 27
1.0
 37
0.0
 76
     0
330
1B
  0
LAYOUT
  5
26
102
{ACAD_REACTORS
330
1A
102
}
330
1A
100
AcDbPlotSettings
  1

  2
none_device
  4

  6

 40
0.0
 41
0.0
 42
0.0
 43
0.0
 44
0.0
 45
0.0
 46
0.0
 47
0.0
 48
0.0
 49
0.0
140
0.0
141
0.0
142
1.0
143
1.0
 70
   688
 72
     0
 73
     0
 74
     5
  7

 75
    16
147
1.0
148
0.0
149
0.0
100
AcDbLayout
  1
Layout2
 70
     1
 71
     2
 10
0.0
 20
0.0
 11
0.0
 21
0.0
 12
0.0
 22
0.0
 32
0.0
 14
0.0
 24
0.0
 34
0.0
 15
0.0
 25
0.0
 35
0.0
146
0.0
 13
0.0
 23
0.0
 33
0.0
 16
1.0
 26
0.0
 36
0.0
 17
0.0
 27
1.0
 37
0.0
 76
     0
330
23
  0
LAYOUT
  5
22
102
{ACAD_REACTORS
330
1A
102
}
330
1A
100
AcDbPlotSettings
  1

  2
none_device
  4
ANSI_A_(11.00_x_8.50_Inches)
  6

 40
6.35
 41
19.05
 42
6.35000508
 43
19.05000254
 44
279.4
 45
215.9
 46
133.3499974601
 47
88.89999873
 48
0.0
 49
0.0
140
0.0
141
0.0
142
5.3266786081
143
1.0
 70
  1696
 72
     0
 73
     0
 74
     0
  7

 75
     0
147
0.5913241897
148
-39.4088153714
149
0.0
100
AcDbLayout
  1
Model
 70
     1
 71
     0
 10
0.0
 20
0.0
 11
12.0
 21
9.0
 12
0.0
 22
0.0
 32
0.0
 14
-0.7898918462
 24
-0.7898918462
 34
0.0
 15
0.7898918462
 25
0.7898918462
 35
0.0
146
0.0
 13
0.0
 23
0.0
 33
0.0
 16
1.0
 26
0.0
 36
0.0
 17
0.0
 27
1.0
 37
0.0
 76
     0
330
1F
331
29
  0
MLINESTYLE
  5
18
102
{ACAD_REACTORS
330
17
102
}
330
17
100
AcDbMlineStyle
  2
Standard
 70
     0
  3

 62
   256
 51
90.0
 52
90.0
 71
     2
 49
0.5
 62
   256
  6
BYLAYER
 49
-0.5
 62
   256
  6
BYLAYER
  0
ACDBPLACEHOLDER
  5
F
102
{ACAD_REACTORS
330
E
102
}
330
E
  0
SCALE
  5
48
102
{ACAD_REACTORS
330
47
102
}
330
47
100
AcDbScale
 70
     0
300
1:1
140
1.0
141
1.0
290
     1
  0
SCALE
  5
49
102
{ACAD_REACTORS
330
47
102
}
330
47
100
AcDbScale
 70
     0
300
1:2
140
1.0
141
2.0
290
     0
  0
SCALE
  5
4A
102
{ACAD_REACTORS
330
47
102
}
330
47
100
AcDbScale
 70
     0
300
1:4
140
1.0
141
4.0
290
     0
  0
SCALE
  5
4B
102
{ACAD_REACTORS
330
47
102
}
330
47
100
AcDbScale
 70
     0
300
1:5
140
1.0
141
5.0
290
     0
  0
SCALE
  5
4C
102
{ACAD_REACTORS
330
47
102
}
330
47
100
AcDbScale
 70
     0
300
1:8
140
1.0
141
8.0
290
     0
  0
SCALE
  5
4D
102
{ACAD_REACTORS
330
47
102
}
330
47
100
AcDbScale
 70
     0
300
1:10
140
1.0
141
10.0
290
     0
  0
SCALE
  5
4E
102
{ACAD_REACTORS
330
47
102
}
330
47
100
AcDbScale
 70
     0
300
1:16
140
1.0
141
16.0
290
     0
  0
SCALE
  5
4F
102
{ACAD_REACTORS
330
47
102
}
330
47
100
AcDbScale
 70
     0
300
1:20
140
1.0
141
20.0
290
     0
  0
SCALE
  5
50
102
{ACAD_REACTORS
330
47
102
}
330
47
100
AcDbScale
 70
     0
300
1:30
140
1.0
141
30.0
290
     0
  0
SCALE
  5
51
102
{ACAD_REACTORS
330
47
102
}
330
47
100
AcDbScale
 70
     0
300
1:40
140
1.0
141
40.0
290
     0
  0
SCALE
  5
52
102
{ACAD_REACTORS
330
47
102
}
330
47
100
AcDbScale
 70
     0
300
1:50
140
1.0
141
50.0
290
     0
  0
SCALE
  5
53
102
{ACAD_REACTORS
330
47
102
}
330
47
100
AcDbScale
 70
     0
300
1:100
140
1.0
141
100.0
290
     0
  0
SCALE
  5
54
102
{ACAD_REACTORS
330
47
102
}
330
47
100
AcDbScale
 70
     0
300
2:1
140
2.0
141
1.0
290
     0
  0
SCALE
  5
55
102
{ACAD_REACTORS
330
47
102
}
330
47
100
AcDbScale
 70
     0
300
4:1
140
4.0
141
1.0
290
     0
  0
SCALE
  5
56
102
{ACAD_REACTORS
330
47
102
}
330
47
100
AcDbScale
 70
     0
300
8:1
140
8.0
141
1.0
290
     0
  0
SCALE
  5
57
102
{ACAD_REACTORS
330
47
102
}
330
47
100
AcDbScale
 70
     0
300
10:1
140
10.0
141
1.0
290
     0
  0
SCALE
  5
58
102
{ACAD_REACTORS
330
47
102
}
330
47
100
AcDbScale
 70
     0
300
100:1
140
100.0
141
1.0
290
     0
  0
SCALE
  5
59
102
{ACAD_REACTORS
330
47
102
}
330
47
100
AcDbScale
 70
     0
300
1/128" = 1'-0"
140
0.0078125
141
12.0
290
     0
  0
SCALE
  5
5A
102
{ACAD_REACTORS
330
47
102
}
330
47
100
AcDbScale
 70
     0
300
1/64" = 1'-0"
140
0.015625
141
12.0
290
     0
  0
SCALE
  5
5B
102
{ACAD_REACTORS
330
47
102
}
330
47
100
AcDbScale
 70
     0
300
1/32" = 1'-0"
140
0.03125
141
12.0
290
     0
  0
SCALE
  5
5C
102
{ACAD_REACTORS
330
47
102
}
330
47
100
AcDbScale
 70
     0
300
1/16" = 1'-0"
140
0.0625
141
12.0
290
     0
  0
SCALE
  5
5D
102
{ACAD_REACTORS
330
47
102
}
330
47
100
AcDbScale
 70
     0
300
3/32" = 1'-0"
140
0.09375
141
12.0
290
     0
  0
SCALE
  5
5E
102
{ACAD_REACTORS
330
47
102
}
330
47
100
AcDbScale
 70
     0
300
1/8" = 1'-0"
140
0.125
141
12.0
290
     0
  0
SCALE
  5
5F
102
{ACAD_REACTORS
330
47
102
}
330
47
100
AcDbScale
 70
     0
300
3/16" = 1'-0"
140
0.1875
141
12.0
290
     0
  0
SCALE
  5
60
102
{ACAD_REACTORS
330
47
102
}
330
47
100
AcDbScale
 70
     0
300
1/4" = 1'-0"
140
0.25
141
12.0
290
     0
  0
SCALE
  5
61
102
{ACAD_REACTORS
330
47
102
}
330
47
100
AcDbScale
 70
     0
300
3/8" = 1'-0"
140
0.375
141
12.0
290
     0
  0
SCALE
  5
62
102
{ACAD_REACTORS
330
47
102
}
330
47
100
AcDbScale
 70
     0
300
1/2" = 1'-0"
140
0.5
141
12.0
290
     0
  0
SCALE
  5
63
102
{ACAD_REACTORS
330
47
102
}
330
47
100
AcDbScale
 70
     0
300
3/4" = 1'-0"
140
0.75
141
12.0
290
     0
  0
SCALE
  5
64
102
{ACAD_REACTORS
330
47
102
}
330
47
100
AcDbScale
 70
     0
300
1" = 1'-0"
140
1.0
141
12.0
290
     0
  0
SCALE
  5
65
102
{ACAD_REACTORS
330
47
102
}
330
47
100
AcDbScale
 70
     0
300
1-1/2" = 1'-0"
140
1.5
141
12.0
290
     0
  0
SCALE
  5
66
102
{ACAD_REACTORS
330
47
102
}
330
47
100
AcDbScale
 70
     0
300
3" = 1'-0"
140
3.0
141
12.0
290
     0
  0
SCALE
  5
67
102
{ACAD_REACTORS
330
47
102
}
330
47
100
AcDbScale
 70
     0
300
6" = 1'-0"
140
6.0
141
12.0
290
     0
  0
SCALE
  5
68
102
{ACAD_REACTORS
330
47
102
}
330
47
100
AcDbScale
 70
     0
300
1'-0" = 1'-0"
140
12.0
141
12.0
290
     0
  0
ENDSEC
  0
EOF
